<?xml version="1.0" encoding="UTF-8"?>
<svg id="Layer_2" xmlns="http://www.w3.org/2000/svg" viewBox="0 0 329.23 341.78">
  <defs>
    <style>
      .cls-1 {
        fill: #8489ed;
      }

      .cls-2 {
        fill: #e9807d;
      }

      .cls-3 {
        fill: #f2e9dd;
      }

      .cls-4 {
        fill: #ffc5ac;
      }

      .cls-5 {
        fill: #565489;
      }
    </style>
  </defs>
  <g id="Background">
    <g>
      <g>
        <path class="cls-1" d="M322.9,210.3c-1,13.67-3.07,27.26-6.1,40.63-2.36,10.4-5.7,20.62-6.87,31.25-.83,7.61-.75,15.29-.39,22.93.28,5.75,2.25,14.53-.83,19.85-7.7,13.31-29.4,12.21-42.64,13.49-19.92,1.92-44,5.44-63.62.41-7.69-2-20.92-5.18-24.02-13.67-2.37-6.39,1.74-18.86,2.62-25.71,2.46-19.14,4.93-38.27,7.39-57.41,1.74-13.5,3.43-27,5.21-40.49,1.52-11.45,4.8-19.73,10.07-30.04,6.58-12.9,15.83-27.88,30.42-32.62,5.69-1.85,11.78-1.9,17.76-1.93,8.63-.04,17.63-.15,26.18,1.21s16.77.79,24.85,3.21c6.93,2.07,13.51,6.41,16.62,12.93,1.95,4.07,2.42,8.67,2.86,13.17,1.4,14.28,1.53,28.59.49,42.8Z"/>
        <path class="cls-5" d="M246.84,6.97c.33.37.64.75.93,1.16,2.41-1.53,5.6-1.45,8.25-.39,2.66,1.06,4.88,2.97,6.92,4.97,7.11,6.97,11.82,14.15,13.78,23.9,1.56,7.75,1.79,15.81,1,23.67-.95,9.47-5.32,18.71-4.65,28.26.63,9.01-4.98,10.75-13.26,11.42-10.44.85-20.92,1.11-31.39.79-1.52-.05-3.08-.11-4.46-.73-1.97-.87-3.31-2.7-4.55-4.45-6.39-8.97-12.79-17.94-19.18-26.91-1-1.4-2.05-2.85-3.57-3.65-1.69-.89-3.71-.84-5.62-.77-3.53.13-7.05.26-10.58.38-2.66.1-5.49.15-7.76-1.23-3.25-1.98-4.26-6.21-4.47-10.01-.93-17.05,8.5-28.8,20.68-39.13,11.86-10.06,27.81-15.64,43.37-13.7,5.37.67,11,2.43,14.55,6.42Z"/>
        <path class="cls-4" d="M226.89,146c-.59,9.2,5.46,14.83,14.81,15.04,5.92.14,11.64-2.06,16.96-4.65,7.25-3.53,14.1-7.87,20.38-12.91.54-.44,1.14-1.02,1.01-1.7-.14-.76-1.03-1.06-1.75-1.35-4.65-1.88-5.38-7.54-5.69-11.87-.4-5.49-1.61-10.76-2.87-16.23-1.43-6.26-2.87-12.53-4.3-18.79-.45-1.98-5.16-16.86-4.08-17.8-6.06,5.38-12.29,10.59-18.66,15.61-5.12,4.04-14.81,8.57-18.33,14.01-2.84,4.39.55,11.29,1.31,15.99,1.31,8.14,1.72,16.44,1.19,24.67Z"/>
        <path class="cls-4" d="M184.77,98.26c1.55,7.89,3.99,15.84,11.58,20.17,4.57,2.61,10.02,3.06,15.27,3.27,8.79.36,17.75.2,26.17-2.34,8.42-2.54,16.35-7.74,20.58-15.46,5.31-9.71,4.06-21.55,2.65-32.53-1.8-14.03-1.4-31.27-12.1-41.97-7.8-7.26-19.57-8.11-30.18-7.12-9.85.92-19.88,3.23-27.88,9.03-13.46,9.76-13.92,26.83-11.51,41.82,1.25,7.78,3.63,15.3,5.04,23.04.13.69.26,1.39.39,2.09Z"/>
        <path class="cls-5" d="M202.2,57.93c.35.17.72.28,1.1.32,1.23.13,2.43-.33,3.55-.84,4.65-2.15,8.02-5.39,11.39-9.13,2.98-3.3,5.47-7.6,9.08-10.3.58,11.47,7.15,22.37,18.52,26,.96.31,1.98.58,2.68,1.31.49.51.77,1.19,1.03,1.84,1.99,4.96,3.98,9.91,5.97,14.87.26.64,1.16.62,1.39-.03,1.56-4.31,3.29-8.61,6.1-12.22,3.2-4.13,8.1-7.29,13.32-7.06-3.27-8.54-6.53-17.08-9.8-25.62-1.66-4.34-3.41-8.82-6.68-12.13-4.3-4.34-10.62-6.04-16.53-7.22-9.06-1.8-18.28-2.64-27.52-2.85-19.21-.42-33.76.47-44.54,18.57-4.46,7.49-6.32,15.28-5.81,24.06.1,1.83.34,3.72,1.36,5.25,1.35,2.03,3.93,3.02,6.37,2.9s4.74-1.21,6.74-2.6c.29,2.08,2.49,3.47,4.59,3.53,2.1.05,4.08-.92,5.88-2,3.86-2.31,7.36-5.21,10.34-8.57.09.85.7,1.53,1.48,1.92Z"/>
        <path class="cls-4" d="M257.73,65.65c4.61-4.31,12.29-5.84,17.29-1.99,2.8,2.15,4.37,5.68,4.53,9.2s-.98,7.03-2.83,10.04c-.98,1.59-2.16,3.07-3.59,4.28-5.65,4.79-13.86,4.56-21.24,4.08-1.3-.14-1.47-11.15-1.12-12.86.93-4.64,3.51-9.53,6.97-12.75Z"/>
        <path class="cls-5" d="M214.99,68.57c-.3-2.3,2.98-2.32,4.44-2.54,2.94-.45,5.9-.38,8.86-.31,1,.02,2.1-.34,2.97.26,0,0,.02.01.02.02,1.09.77.68,2.51-.61,2.83-4.4,1.06-8.92,1.6-13.44,1.61-1.09,0-2.1-.78-2.24-1.87Z"/>
        <path class="cls-5" d="M199.75,71.67c.19,2.01-2.86,2.32-4.23,2.66-2.89.72-5.84.92-8.79,1.13-.99.07-2.06.53-2.98.02,0,0-.02,0-.02-.01-1.15-.67-.91-2.44.35-2.87,4.27-1.46,8.71-2.42,13.2-2.85,1.2-.11,2.36.73,2.48,1.93Z"/>
        <path class="cls-5" d="M224.03,123.69c-.25,0-.47-.19-.5-.45-.03-.28.18-.52.45-.54,11.39-1.07,22.39-6.5,30.16-14.9.19-.2.5-.21.71-.03.2.19.21.5.03.71-7.94,8.58-19.17,14.12-30.8,15.21-.02,0-.03,0-.05,0Z"/>
        <path class="cls-5" d="M212.98,107.67c-3.05,0-5.58-1.09-6.96-3.05-.16-.23-.1-.54.12-.7.22-.16.54-.1.7.12,1.4,1.99,4.26,2.93,7.66,2.53,3.5-.42,6.22-2.08,7.29-4.44.11-.25.41-.36.66-.25.25.11.36.41.25.66-1.21,2.68-4.23,4.56-8.08,5.02-.56.07-1.1.1-1.63.1Z"/>
        <path class="cls-5" d="M206.05,99.55c-2.41,0-3.88-.69-4.39-2.04-.47-1.25.13-2.5.66-3.6l.06-.13c2.09-4.37,2.58-9.56,1.34-14.24-.07-.27.09-.54.36-.61.27-.08.54.09.61.36,1.3,4.91.79,10.35-1.4,14.93l-.06.13c-.46.97-.94,1.97-.63,2.82.37.98,1.67,1.46,3.8,1.39.27-.02.51.21.51.49,0,.28-.21.51-.49.51-.13,0-.26,0-.38,0Z"/>
        <path class="cls-5" d="M260.7,82.54c-.27,0-.49-.21-.5-.48-.1-2.59.8-5.2,2.49-7.17,1.68-1.97,4.13-3.27,6.7-3.57.26-.03.52.16.55.44.03.27-.17.52-.44.55-2.33.27-4.53,1.44-6.06,3.22s-2.34,4.14-2.25,6.48c.01.28-.2.51-.48.52h-.02Z"/>
        <path class="cls-5" d="M261.22,78.69c-.09,0-.19-.03-.27-.08-.23-.15-.3-.46-.15-.69.91-1.4,2.59-2.36,4.51-2.57,1.48-.16,3.14.09,5.04.78.26.09.39.38.3.64s-.38.39-.64.3c-1.76-.63-3.26-.87-4.6-.72-1.62.18-3.03.97-3.78,2.12-.1.15-.26.23-.42.23Z"/>
        <path class="cls-3" d="M228.17,35.89c-.05,0-.11,0-.16-.03-.26-.09-.4-.37-.31-.63,3.41-10.13,9.56-19.09,17.77-25.92.21-.17.53-.15.7.07.18.21.15.53-.07.7-8.08,6.71-14.11,15.52-17.46,25.47-.07.21-.26.34-.47.34Z"/>
        <path class="cls-5" d="M220.17,49.86c-.11,0-.21-.03-.3-.1-.22-.17-.26-.48-.09-.7,2.76-3.62,4.87-7.65,6.27-11.98.08-.26.37-.41.63-.32.26.08.41.37.32.63-1.44,4.44-3.6,8.57-6.43,12.28-.1.13-.25.2-.4.2Z"/>
        <path class="cls-5" d="M248.24,9.85s-.02,0-.03,0c-.28-.01-.49-.25-.47-.53.18-3.43,1.7-6.78,4.16-9.18.2-.19.52-.19.71,0,.19.2.19.51,0,.71-2.29,2.22-3.69,5.33-3.86,8.51-.01.27-.23.47-.5.47Z"/>
        <path class="cls-5" d="M247.75,10.12s-.07,0-.1,0c-.27-.05-.45-.32-.39-.59.44-2.25.5-4.54.18-6.81-.04-.27.15-.53.42-.57.27-.03.53.15.57.42.34,2.38.28,4.79-.19,7.14-.05.24-.26.4-.49.4Z"/>
        <path class="cls-3" d="M213.55,14.12c-.21,0-.41-.14-.48-.35-.08-.26.06-.54.33-.63,5.27-1.66,10.75-2.56,16.28-2.66,2.76-.05,6.34.09,9.44,1.6.25.12.35.42.23.67-.12.25-.42.35-.67.23-2.92-1.42-6.33-1.55-8.99-1.5-5.43.1-10.81.97-16,2.61-.05.02-.1.02-.15.02Z"/>
        <path class="cls-3" d="M244.74,36.77c-.14,0-.27-.06-.37-.17-2.95-3.27-6.4-6-10.27-8.1-.24-.13-.33-.44-.2-.68.13-.24.44-.33.68-.2,3.97,2.16,7.51,4.96,10.54,8.31.19.21.17.52-.04.71-.1.09-.22.13-.33.13Z"/>
        <path class="cls-3" d="M274.5,58.1s-.02,0-.03,0c-.28-.01-.49-.25-.47-.53.05-.98-.04-1.95-.29-2.9-.07-.27.09-.54.36-.61.27-.07.54.09.61.36.27,1.05.38,2.12.32,3.21-.01.27-.24.47-.5.47Z"/>
        <path class="cls-3" d="M249.47,64.8c-.25,0-.47-.19-.5-.45-.03-.28.18-.52.45-.55l3.31-.32c.27,0,.52.17.55.45s-.18.52-.45.55l-3.31.32s-.03,0-.05,0Z"/>
        <path class="cls-3" d="M200.4,56.05c-.08,0-.17-.02-.24-.06-.24-.13-.33-.44-.19-.68l3.02-5.39c.13-.24.44-.33.68-.19.24.13.33.44.19.68l-3.02,5.39c-.09.16-.26.26-.44.26Z"/>
        <path class="cls-3" d="M179.76,62.45c-.07,0-.14-.01-.21-.05-.25-.12-.36-.42-.24-.67.37-.8.53-1.68.45-2.56-.02-.28.18-.52.45-.54.26-.02.52.18.54.45.09,1.05-.09,2.12-.54,3.07-.08.18-.27.29-.45.29Z"/>
        <path class="cls-5" d="M185.57,212.38c-.09,0-.18-.02-.26-.07l-7.76-4.7c-2.46-1.49-5.24-3.18-8.25-3.62-.27-.04-.46-.29-.42-.57.04-.27.29-.45.57-.42,3.21.47,6.08,2.22,8.62,3.76l7.76,4.7c.24.14.31.45.17.69-.09.16-.26.24-.43.24Z"/>
        <path class="cls-5" d="M212.93,112.59c-.27,0-.49-.21-.5-.48-.01-.28.2-.51.48-.52,1.29-.05,2.58-.23,3.84-.51.27-.06.54.11.6.38.06.27-.11.54-.38.6-1.31.3-2.67.48-4.02.54h-.02Z"/>
        <path class="cls-5" d="M187.61,86.77c-.22,0-.42-.15-.48-.37-.37-1.36.15-2.91,1.32-3.97,1.2-1.08,2.76-1.43,3.86-1.54,1.53-.14,2.87.1,3.91.72,1.31.79,2.08,2.21,1.9,3.54-.04.27-.29.47-.56.43-.27-.04-.47-.29-.43-.56.12-.93-.46-1.97-1.42-2.55-1.08-.64-2.39-.67-3.3-.58-.95.09-2.29.39-3.29,1.29-.88.79-1.29,1.98-1.02,2.96.07.27-.08.54-.35.62-.04.01-.09.02-.13.02Z"/>
        <path class="cls-5" d="M216.37,83.98c-.22,0-.42-.15-.48-.37-.37-1.36.15-2.91,1.32-3.97,1.19-1.08,2.76-1.43,3.86-1.54,1.52-.14,2.87.1,3.91.72,1.31.79,2.08,2.21,1.9,3.54-.04.27-.29.48-.56.43-.27-.04-.47-.29-.43-.56.12-.93-.46-1.97-1.42-2.55-1.08-.64-2.39-.67-3.3-.58-.95.09-2.3.39-3.29,1.29-.88.79-1.29,1.98-1.02,2.96.07.27-.08.54-.35.62-.04.01-.09.02-.13.02Z"/>
      </g>
      <g>
        <path class="cls-4" d="M227.26,290.2c-2.71,6.87-6.93,13.05-14.03,12.93-12.41-.22-13.5-8.86-16.97-18.83-6.18-17.75-9.72-36.44-10.39-55.25-.18-5.06-.11-10.33,2.09-14.88,4.95-10.24,13.43-8.73,22.6-7.96,1.49.13,3.03.26,4.36.96,6.57,3.46,19.8,54.94,15.72,71.73-.81,3.32-1.85,7.42-3.38,11.3Z"/>
        <path class="cls-2" d="M207.33,193.62c4.54,4.68,8.72,9.57,11.27,15.84.36.88.69,1.88.34,2.76-.22.55-.67.97-1.1,1.36-4.37,3.96-9,7.63-13.85,10.98-.65.45-1.33.91-2.1,1.09-.86.2-1.76.05-2.62-.1-17.46-3.05-33.73-8.39-46.7-21.36-7.64-8.11-11.97-19.25-11.81-30.39.08-5.68,2.93-19.93,10.62-20.62,4.04-.36,11.73,5.96,15.19,8.01,5.15,3.05,10.22,6.26,15.19,9.6,6.98,4.7,13.42,10.48,19.3,16.49,2.09,2.14,4.22,4.21,6.28,6.33Z"/>
        <path class="cls-2" d="M34.2,155.1c-2.01.71-3.99,1.49-5.95,2.33,1.76,27.22,3.49,54.27,7.68,81.27,4.19,27,9,54.71,3.77,81.92-.5,2.57-.99,5.55.69,7.56,1.1,1.32,2.86,1.85,4.52,2.31,29.96,8.34,61.74,15.81,91.84,7.95,9.8-2.56,19.8-7.24,24.92-15.98,3.18-5.42,4.14-11.83,4.93-18.07,5.77-45.66,5.48-92.08-.88-137.66-.52-3.72-1.17-7.65-3.63-10.48-2.35-2.71-5.94-3.93-9.39-4.93-20.66-5.97-42.27-6.87-63.61-5.31-18.34,1.33-37.44,2.88-54.89,9.09Z"/>
        <g>
          <path class="cls-3" d="M27.46,167.74c-.49,0-.97-.24-1.26-.69-.45-.7-.25-1.62.45-2.07,1.32-.85,7.17-4.48,9.58-5.38.78-.29,1.64.1,1.93.88.29.78-.1,1.64-.88,1.93-1.84.69-6.85,3.71-9.01,5.09-.25.16-.53.24-.81.24Z"/>
          <path class="cls-3" d="M43.76,193.1c-.5,0-1-.26-1.28-.72-.43-.71-.21-1.63.5-2.06,2.74-1.67,5.64-3.15,8.62-4.38.77-.32,1.64.05,1.96.81.32.76-.05,1.64-.81,1.96-2.83,1.17-5.59,2.58-8.21,4.17-.24.15-.51.22-.78.22Z"/>
          <path class="cls-3" d="M25.76,215h-12.12c-.83,0-1.5-.67-1.5-1.5s.67-1.5,1.5-1.5h12.12c.83,0,1.5.67,1.5,1.5s-.67,1.5-1.5,1.5Z"/>
          <path class="cls-3" d="M55.04,228.74c-.58,0-1.13-.34-1.38-.91l-4.29-9.96c-.33-.76.02-1.64.78-1.97.76-.33,1.64.02,1.97.78l4.29,9.96c.33.76-.02,1.64-.78,1.97-.19.08-.39.12-.59.12Z"/>
          <path class="cls-3" d="M30.21,250.6c-.56,0-1.1-.32-1.36-.86-.35-.75-.03-1.64.72-2,3.37-1.59,6.6-3.5,9.59-5.7.67-.49,1.61-.34,2.1.32.49.67.34,1.61-.32,2.1-3.15,2.31-6.55,4.33-10.09,6-.21.1-.42.14-.64.14Z"/>
          <path class="cls-3" d="M11.36,270.9c-.26,0-.52-.07-.75-.2-.72-.42-.96-1.33-.54-2.05,1.67-2.88,3.34-5.75,5.02-8.62.42-.72,1.34-.95,2.05-.54.72.42.96,1.34.54,2.05-1.68,2.87-3.35,5.75-5.02,8.62-.28.48-.78.75-1.3.75Z"/>
          <path class="cls-3" d="M86.34,208.3s-.09,0-.14,0c-3.82-.35-7.66-.93-11.42-1.74-.81-.17-1.33-.97-1.15-1.78.17-.81.97-1.33,1.78-1.15,3.64.78,7.36,1.34,11.06,1.68.82.08,1.43.81,1.36,1.63-.07.78-.73,1.36-1.49,1.36Z"/>
          <path class="cls-3" d="M71.47,283.31c-.3,0-.6-.09-.86-.27-.68-.48-.84-1.41-.37-2.09,1.88-2.69,6.12-5.96,8.66-7.92.68-.53,1.45-1.12,1.72-1.36.29-.43.8-.71,1.35-.65.83.06,1.45.77,1.39,1.6-.06.81-.35,1.03-2.62,2.79-2.4,1.85-6.42,4.95-8.04,7.27-.29.42-.76.64-1.23.64Z"/>
          <path class="cls-3" d="M102.91,264.9c-.41,0-.82-.17-1.12-.5-1.05-1.17-1.83-2.1-2.59-3.01-1.46-1.75-2.73-3.26-5.37-5.75-.6-.57-.63-1.52-.06-2.12.57-.6,1.52-.63,2.12-.06,2.76,2.61,4.08,4.18,5.6,6,.74.89,1.51,1.8,2.52,2.93.55.62.5,1.56-.11,2.12-.29.26-.64.38-1,.38Z"/>
          <path class="cls-3" d="M107.73,225.68c-.25,0-.51-.06-.75-.2-.72-.41-.97-1.33-.56-2.05,2.12-3.7,3.86-7.63,5.17-11.68.26-.79,1.1-1.22,1.89-.96.79.26,1.22,1.1.96,1.89-1.38,4.25-3.2,8.37-5.42,12.24-.28.48-.78.75-1.3.75Z"/>
          <path class="cls-3" d="M64.65,166.41c-.33,0-.67-.11-.94-.33-.64-.52-.74-1.47-.22-2.11,2.49-3.07,5.36-5.82,8.53-8.17.67-.49,1.61-.35,2.1.31.49.67.35,1.61-.31,2.1-2.97,2.2-5.66,4.78-7.99,7.65-.3.37-.73.56-1.17.56Z"/>
          <path class="cls-3" d="M116.45,178.11c-.22,0-.44-.05-.65-.15-2.71-1.32-5.73-2.01-8.74-2.01-.02,0-.05,0-.07,0-.83,0-1.5-.67-1.5-1.5,0-.83.67-1.5,1.5-1.5h.07c3.46,0,6.94.8,10.05,2.31.75.36,1.06,1.26.69,2-.26.53-.79.84-1.35.84Z"/>
          <path class="cls-3" d="M129.41,166.53c-.08,0-.15,0-.23-.02-.82-.12-1.38-.89-1.25-1.71.53-3.45.67-6.95.41-10.43-.06-.83.56-1.55,1.39-1.61.84-.07,1.55.56,1.61,1.39.27,3.7.12,7.44-.44,11.1-.11.74-.75,1.27-1.48,1.27Z"/>
          <path class="cls-3" d="M149.18,156.75c-.73,0-1.37-.53-1.48-1.28-.12-.82.44-1.58,1.26-1.71l14.81-2.21c.83-.13,1.58.44,1.71,1.26.12.82-.44,1.58-1.26,1.71l-14.81,2.21c-.08.01-.15.02-.22.02Z"/>
          <path class="cls-3" d="M149.96,201.5c-.16,0-.31-.02-.47-.08-.79-.26-1.22-1.11-.96-1.89l2.66-8.09c.26-.79,1.1-1.22,1.89-.96.79.26,1.21,1.11.96,1.89l-2.66,8.09c-.21.63-.79,1.03-1.42,1.03Z"/>
          <path class="cls-3" d="M202.61,204.37c-.66,0-1.27-.44-1.45-1.11-.21-.8.26-1.62,1.06-1.84,4.03-1.08,8.2-1.76,12.37-2.02.84-.05,1.54.58,1.59,1.4.05.83-.58,1.54-1.4,1.59-3.98.25-7.94.9-11.79,1.92-.13.03-.26.05-.39.05Z"/>
          <path class="cls-3" d="M143.37,247.89c-.68,0-1.3-.47-1.46-1.16-.19-.81.31-1.61,1.12-1.8,3.1-.72,6.16-1.7,9.1-2.9.77-.31,1.64.05,1.96.82.31.77-.05,1.64-.82,1.96-3.09,1.27-6.31,2.29-9.56,3.05-.11.03-.23.04-.34.04Z"/>
          <path class="cls-3" d="M131.24,264.35c-.41,0-.82-.17-1.12-.5l-4.67-5.23c-.55-.62-.5-1.57.12-2.12.62-.55,1.57-.5,2.12.12l4.67,5.23c.55.62.5,1.57-.12,2.12-.29.25-.64.38-1,.38Z"/>
          <path class="cls-3" d="M124.68,334.28c-.54,0-1.07-.3-1.33-.81-1.67-3.25-3.8-6.22-6.34-8.85-.58-.6-.56-1.54.04-2.12.59-.58,1.54-.56,2.12.04,2.74,2.84,5.05,6.05,6.85,9.56.38.74.09,1.64-.65,2.02-.22.11-.45.17-.68.17Z"/>
          <path class="cls-3" d="M73.19,332.06c-.21,0-.43-.04-.63-.14-.75-.35-1.07-1.24-.72-1.99l3.92-8.37c.35-.75,1.25-1.08,1.99-.72.75.35,1.07,1.24.72,1.99l-3.92,8.37c-.25.54-.79.86-1.36.86Z"/>
        </g>
        <path class="cls-3" d="M154.93,209.92c3.54-2.47,9.04-3.75,12.66-5.07,2.07-.76,4.16-1.48,6.09-2.54,4.82-2.63,6.76-3.28,12.24-3.17,4.77.1,9.53.5,14.29.9,1.73.15,3.51.34,5.06,1.12,2.89,1.46,4.43,4.63,5.77,7.58,8.31,18.34,7.62,39.63,7.02,59.57-.37,12.31-2,25.62-10.47,34.56-4.02,4.24-9.27,7.13-14.72,9.25-7.4,2.88-15.44,4.45-23.31,3.39-7.86-1.06-15.52-4.97-20.13-11.43-5.33-7.47-6.05-17.31-5-26.42.39-3.37.82-6.89,1.58-10.2.67-2.9,1.8-5.39,1.28-8.49-.21-1.27-.62-2.5-.74-3.78-.12-1.28.11-2.67,1.01-3.59,2.36-2.44,1.33-7.43,1.27-10.62-.08-3.9-.24-7.81-.09-11.71.2-5.37.75-12.2,3.71-16.87.6-.95,1.47-1.77,2.5-2.49Z"/>
        <path class="cls-3" d="M143.82,324.55c.73.3,1.48.61,2.25.92,12.91,5.19,27,7.47,40.88,6.48,13.22-.94,22.67-8.25,27.44-20.64,3.23-8.39,4.73-17.45,4.37-26.44-.15-3.88-.84-8.12-3.77-10.67-5.91-5.14-15.58-.53-22.22.51-9.18,1.44-18.26,3.61-27.53,4.47-12.33,1.14-22.17-4.31-34.1-4.07-10.39.2-19.95,5.33-29.24,9.99-9.09,4.56-18.35,8.79-27.75,12.68-5.9,2.44-9.45,3.77-15.03.83s-11.38-4.89-17.67-5.39c-2.11-.17-4.48-.09-6.01,1.38-2.42,2.31-1.27,6.34.15,9.37,2.42,5.16,5.15,10.18,8.18,15.01,1.78,2.84,3.71,5.67,6.37,7.72,5.8,4.48,14,4.42,21.05,2.4,7.05-2.02,13.5-5.74,20.45-8.06,18.6-6.21,34.62-3.72,52.19,3.51Z"/>
        <path class="cls-4" d="M62.36,318.17c13.75,11.6,39.34,11.16,56.37,12.74,13.68,1.27,26.59,1.23,40.25.4,2.77-.17,5.55-.34,8.28-.87,4.66-.91,13.08-2.44,15.66-6.62,3.23-5.24,1.66-12.18-1.09-17.26-3.36-6.23-8.95-5.44-15.18-6.03-5.4-.52-10.81-.86-16.22-1.11-10.6-.48-21.2-.57-31.81-.75-12.23-.21-22.94-2.15-32.59-10.08-12.86-10.57-22.74-24.73-28.24-40.44-.46-1.31-.99-2.76-2.21-3.41-1.36-.72-3.01-.19-4.44.37-9.04,3.53-17.83,7.68-26.31,12.41-3.13,1.75-9.22,3.67-8.92,7.54.25,3.25,5.95,9.03,7.82,11.6,11.15,15.32,24.14,29.29,38.62,41.51Z"/>
        <path class="cls-2" d="M26.62,157.94c-10.43,5.07-19.15,17.85-22.34,27.74-8.25,25.54-3.46,58.33,4.85,83.19.28.84.6,1.73,1.29,2.29.86.69,2.05.71,3.15.69,18.63-.3,37.88-4.64,54.87-12.46.71-.33,1.46-.7,1.83-1.38.41-.74.28-1.65.14-2.49-4.5-26.47-7.06-54.27-14.42-80.09-3.8-13.32-14.68-24.64-29.38-17.5Z"/>
        <g>
          <path class="cls-3" d="M26.45,169.42c-.49,0-.97-.24-1.26-.69-.45-.7-.25-1.62.45-2.07,1.32-.85,7.17-4.48,9.58-5.38.78-.29,1.64.1,1.93.88.29.78-.1,1.64-.88,1.93-1.84.69-6.85,3.71-9.01,5.09-.25.16-.53.24-.81.24Z"/>
          <path class="cls-3" d="M8.9,189.48c-.48,0-.95-.23-1.24-.65-1.11-1.6-1.39-2.1-2.14-3.44l-.37-.65c-.41-.72-.15-1.64.57-2.04.72-.41,1.64-.16,2.04.57l.37.66c.74,1.32.97,1.72,2,3.21.47.68.3,1.62-.38,2.09-.26.18-.56.26-.85.26Z"/>
          <path class="cls-3" d="M42.75,194.78c-.5,0-1-.26-1.28-.72-.43-.71-.21-1.63.5-2.06,2.75-1.68,5.65-3.15,8.62-4.38.77-.32,1.64.05,1.96.81.32.77-.05,1.64-.81,1.96-2.83,1.17-5.59,2.57-8.21,4.17-.24.15-.51.22-.78.22Z"/>
          <path class="cls-3" d="M24.75,216.68h-12.12c-.83,0-1.5-.67-1.5-1.5s.67-1.5,1.5-1.5h12.12c.83,0,1.5.67,1.5,1.5s-.67,1.5-1.5,1.5Z"/>
          <path class="cls-3" d="M54.03,230.42c-.58,0-1.13-.34-1.38-.91l-4.29-9.96c-.33-.76.02-1.64.78-1.97.76-.33,1.64.02,1.97.78l4.29,9.96c.33.76-.02,1.64-.78,1.97-.19.08-.39.12-.59.12Z"/>
          <path class="cls-3" d="M29.2,252.28c-.56,0-1.1-.32-1.36-.86-.35-.75-.03-1.64.72-2,3.36-1.58,6.59-3.5,9.59-5.7.67-.49,1.61-.34,2.1.32.49.67.34,1.61-.32,2.1-3.16,2.31-6.55,4.33-10.09,6-.21.1-.42.14-.64.14Z"/>
          <path class="cls-3" d="M10.95,271.43c-.26,0-.52-.07-.75-.2-.72-.42-.96-1.33-.54-2.05.89-1.52,1.61-2.73,2.33-3.95.65-1.08,1.3-2.18,2.09-3.53.42-.72,1.34-.95,2.05-.54.72.42.96,1.34.54,2.05-.8,1.36-1.46,2.47-2.11,3.56-.72,1.21-1.44,2.4-2.32,3.91-.28.48-.78.75-1.3.75Z"/>
          <path class="cls-3" d="M64.5,249.19c-.31,0-.62-.09-.89-.29-.67-.49-.81-1.43-.32-2.1,1.06-1.44,1.38-1.92,1.7-2.4.33-.5.68-1.01,1.78-2.51.49-.67,1.43-.81,2.1-.32.67.49.81,1.43.32,2.1-1.06,1.44-1.38,1.92-1.71,2.4-.34.5-.67,1-1.78,2.5-.29.4-.75.61-1.21.61Z"/>
        </g>
        <path class="cls-5" d="M95.97,13c-9.83,2.72-19.08,7.83-26.45,14.65-4.34,4.02-8.16,7.55-9.21,13.57-1.13,6.51.4,13.46-2.56,19.62-2.72,5.66-8.87,9.17-11.31,14.96-2.37,5.65-.76,12.47-3.53,17.94-1.98,3.92-5.88,6.46-8.63,9.89-4.34,5.39-5.6,12.77-4.75,19.63.68,5.51,2.45,11.85,5.27,16.68s7.61,6.21,13.09,7.96c11.02,3.51,22.58,4.81,33.88,7.09,14.84,3.01,29.97,4.5,45.13,4.99,7.85.25,15.89.19,23.68-.98,5.67-.85,10.45-2.69,16.31-3.1,1.31-.09,2.73-.22,3.72-1.09,1.25-1.09,1.39-2.96,1.33-4.62-.15-4.27-1.07-8.5-2.7-12.45-1.87-4.54-4.73-9.47-2.87-14.01,1.16-2.83,3.9-4.67,5.7-7.15,2.97-4.12,2.97-10.15,0-14.26-1.58-2.18-3.94-3.96-4.55-6.59-.97-4.24,2.83-7.63,4.5-11.12,2.06-4.31,2.58-9.35,3.65-13.97,2.48-10.71,5.61-22.36.74-32.89-7.43-16.08-24.37-10.27-36.54-18.63-13-8.93-29.1-10.22-43.89-6.13Z"/>
        <path class="cls-4" d="M72.52,84.66c0,8.55,2.79,17.26,8.56,23.58,3.86,4.23,8.87,7.25,14.03,9.74,11.36,5.49,24.26,8.72,36.65,6.35,12.39-2.37,24-11.18,27.21-23.39,1.17-4.45,1.21-9.1,1.81-13.66.97-7.35,3.39-14.46,4.3-21.82.91-7.36.07-15.42-4.69-21.1-2.68-3.2-6.39-5.38-10.26-6.93-15.69-6.25-33.61-2.46-49.26,3.88-18.93,7.66-28.32,22.83-28.34,43.35Z"/>
        <path class="cls-5" d="M234.16,143.49c6.61,18.6-8.29,54.63-30.66,54.62-6.91,0-12.49-5.34-17.28-10.32-6.14-6.39-12.38-12.91-16.29-20.87-1.34-2.73-2.43-5.67-4.53-7.88-4.02-4.25-11.56-4.84-12.34-11.03-.82-6.54,3.12-16.29,6.34-21.79,12.05-20.59,40.08-13.48,52.24,3.14.57.78,1.16,1.58,1.96,2.13,2.08,1.43,4.87.8,7.39.9,6.05.26,10.93,5.23,12.99,10.62.06.16.12.31.17.47Z"/>
        <path class="cls-4" d="M150.25,168.48c-2.06,7.92-3.02,17.17,2.1,23.56,4.49,5.6,12.28,7.22,19.44,7.61,5.67.31,11.54.06,16.71-2.29,8.67-3.94,13.82-13,17.11-21.94,3.35-9.11,5.36-19.32,2.06-28.45-1.19-3.29-3.1-6.4-5.85-8.56-2.33-1.83-5.17-2.92-8.04-3.68-10.7-2.84-22.43-1.19-32.1,4.13-4.99,2.75-7.52,4.3-7.87,9.77-.44,6.94-1.81,13.11-3.56,19.86Z"/>
        <path class="cls-4" d="M109.79,143.67c.54.51,1.24.88,2.15,1.06,7.44,1.42,15.37.58,22.59,3.29.83.31,2.52.9,2.53,2.02,0,1.96-1.18,2.91-2.61,4.04-3.4,2.69-7.31,4.67-11.36,6.19-5.02,1.88-10.39,3.25-15.62,4.34-2.76.57-5.84.53-8.65.63s-5.66.11-8.49.02c-10.24-.34-21.02-4.7-30.5-8.39-1.89-.74-10.39-3.97-8.99-6.49,1.03-1.85,6.62-1.72,8.45-2.14,2.79-.63,5.62-1.28,8.09-2.72,6.4-3.73,6.01-13.61,7.59-20.11,2.1-8.64,4.6-17.18,7.51-25.58,5.2,2.94,10.39,5.89,15.59,8.83,2.36,1.34,4.93,2.3,7.37,3.47,1.76.85,6.12,2.43,6.93,4.42.99,2.44-1.49,8.66-1.98,11.35-.51,2.79-1.5,5.48-1.93,8.29-.38,2.51-.47,5.77,1.33,7.49Z"/>
        <path class="cls-4" d="M180.35,209.5c3.95.84,7.91,1.04,11.88.55s8.27-.23,12.33-.29c.37,0,.76-.02,1.06-.24.45-.34.48-.99.47-1.56-.2-8.44.03-16.94-1.34-25.28-.57-3.47-2.28-16.68-6.12-17.82-3.58-1.06-18.51,9.84-19.67,13.32-1.37,4.09.68,9.96,1.19,14.08.71,5.72,1.33,11.52.2,17.23Z"/>
        <path class="cls-4" d="M162.41,302.08c3.71-2.38,7.41-4.78,11.14-7.12,3.24-2.03,5.97-5.28,8.75-7.96.82-.79,1.66-1.59,2.72-2,4.12-1.59,4.66,3.7,3.67,6.32-1.28,3.42-3.13,6.62-5.44,9.45,2.89-3.54,23.01-14.24,28.57-16.76.73-.33,1.48-.67,2.28-.76.94-.11,1.92.14,2.69.69.59.42,1.07,1.02,1.23,1.73.38,1.64-.96,3.15-2.25,4.24-3.33,2.81-7.2,4.8-10.74,7.23-4.27,2.94-8.49,5.93-12.95,8.59,8.88-2.76,17.8-5.42,26.74-7.98.85-.24,1.79-.49,2.61-.14,1.32.56,1.61,2.44.93,3.7-.68,1.26-1.99,2.04-3.26,2.7-7.82,4.1-16.39,6.54-24.89,8.95,6.77-1.9,13.53-3.81,20.3-5.71,2.03-.57,4.59-.99,5.92.64.96,1.18.75,3-.11,4.26-.86,1.26-2.22,2.07-3.56,2.78-7.43,3.93-15.83,6.01-24.23,6,4.7.54,9.4,1.09,14.1,1.63,1.6.18,3.5.6,4.04,2.11.5,1.38-.49,2.88-1.67,3.76-3.27,2.45-7.75,2.18-11.83,2.05-7.23-.23-27.77,2.86-30.53,1.6-1.25-.57-2.31-1.51-3.24-2.52-3.9-4.25-5.91-10.18-5.37-15.93.53-5.74,3.59-11.21,8.21-14.67l-3.82,3.11Z"/>
        <path class="cls-4" d="M78.07,190.88c-1.23-.53-2.67-1.4-2.57-2.74.07-.95.98-1.66,1.91-1.83s1.89.07,2.81.32c2.05.54,4.1,1.08,6.16,1.63-4.32-1.57-7.95-4.91-9.98-9.04-.67-1.37.62-2.86,2.1-2.51,1.92.46,3.76,1.28,5.37,2.42-2.37-2.56-4.89-5.6-5.32-8.9-.18-1.4,1.06-2.63,2.45-2.36,2.31.47,4.45,1.81,5.82,3.74-1.02-1.62-1.93-3.3-2.73-5.04-.47-1.03-.72-2.58.33-3,.59-.23,1.24.08,1.78.4,5.38,3.11,10.19,7.21,14.11,12.04.39.49,1.1.54,1.57.12,1.69-1.49,3.04-3.39,3.87-5.48.43-1.08.75-2.25,1.53-3.11s2.23-1.27,3.1-.5c.43.38.63.97.74,1.54.68,3.54-1.29,7-1.82,10.56-.5,3.39.3,6.96-.8,10.2-1.1,3.24-4.02,5.65-7.26,6.74-8.33,2.81-15.79-1.99-23.2-5.21Z"/>
        <path class="cls-4" d="M212.42,165.61c.95-.21,1.94-.34,2.89-.15,1.58.31,2.85,1.45,3.75,2.73,3.14,4.48,2.25,10.94-1.56,14.93-3.81,3.99-10.04,5.5-15.58,4.37-.16-.03-.33-.07-.45-.17-.2-.17-.23-.44-.25-.7-.29-4.31-1.78-10,.75-13.79,2.39-3.57,6.09-6.26,10.46-7.22Z"/>
        <path class="cls-4" d="M192.81,284.18c-4.4.18-8.81.33-13.21.54-3.82.19-7.92-.91-11.73-1.52-1.12-.18-2.27-.35-3.37-.08-4.29,1.06-1.7,5.7.61,7.29,3.01,2.07,6.36,3.64,9.87,4.63-4.4-1.25-27.02,1.51-33.02,2.62-.79.15-1.6.3-2.31.68-.83.45-1.49,1.21-1.81,2.11-.24.68-.29,1.45-.02,2.12.63,1.57,2.59,2.04,4.27,2.19,4.34.4,8.65-.19,12.95-.22,5.19-.04,10.36,0,15.54-.37-8.86,2.83-17.69,5.75-26.49,8.76-.84.29-1.74.63-2.22,1.38-.76,1.21.08,2.92,1.36,3.57s2.8.53,4.22.35c8.76-1.12,17.18-4.03,25.53-6.91-6.64,2.31-13.28,4.63-19.92,6.94-1.99.69-4.33,1.81-4.48,3.92-.11,1.52,1.11,2.89,2.53,3.43s3,.43,4.52.24c8.34-1.03,16.42-4.14,23.3-8.96-3.54,3.14-7.09,6.27-10.63,9.41-1.2,1.06-2.52,2.49-2.11,4.04.38,1.42,2.05,2.07,3.52,2.12,4.08.13,7.6-2.65,10.88-5.09,5.8-4.32,24.41-13.56,25.95-16.17.7-1.19,1.03-2.56,1.21-3.92.77-5.72-.99-11.73-4.71-16.13s-9.36-7.13-15.13-7.32l4.91.37Z"/>
        <path class="cls-4" d="M182.09,293.98c-.16-9.31,8.44-9.01,14.79-11.47,7.56-2.92,14.1-8.56,17.9-15.74,4.17-7.88,3.35-16.4,3.7-24.96.06-1.49.21-3.16,1.36-4.11,1.21-.99,3.11-.69,4.34.28s1.96,2.43,2.6,3.86c6.45,14.32,9.1,31.25,4.14,46.44-4.43,13.56-16.83,22.32-30.38,25.77-1.49.38-3.04.67-4.56.43-1.57-.25-3-1.07-4.29-2.01-5.82-4.23-9.49-11.29-9.61-18.49Z"/>
        <path class="cls-5" d="M142.24,53.02c-12.52,7.9-31.1,11.08-45.66,10.84-.67,7.98,4.14,16.04,1.92,23.73-1.8,6.23-8.04,11.44-6.86,17.82.7,3.8,3.97,6.73,4.68,10.52,1.42,7.66-7.89,13.65-8,21.45-.04,2.69,1.03,5.18,2.43,7.51.76,1.27-.08,2.9-1.55,3.01-5.78.44-16.23,2.63-18.08,2.98-6.48,1.24-12.23.6-18.58-1.84-3.79-1.46-7.45-3.5-10.11-6.57-3.74-4.32-5.11-10.29-4.9-16,.22-5.71,1.88-11.25,3.6-16.7,8.89-28.18,20.63-57.17,43.78-75.54,3.8-3.02,7.91-5.73,12.42-7.53,7.31-2.92,15.36-3.33,23.23-3.31,6.4.02,12.9.31,19.01,2.21,4.74,1.47,13.91,5.51,14.51,11.22.64,6.14-7.3,13.35-11.82,16.21Z"/>
        <path class="cls-5" d="M206.42,142.05c.74-.47,1.51-1,1.85-1.81.36-.85.16-1.83-.11-2.71-2.07-6.65-8.24-11.49-14.96-13.34s-13.9-1.08-20.66.63c-5.25,1.33-10.43,3.27-14.79,6.48-3.72,2.73-10.84,9.76-7.31,13.75,3.31,3.74,14.02,4.84,18.65,5.35,12.9,1.43,26.33-1.39,37.33-8.35Z"/>
        <path class="cls-5" d="M154.33,57.05c3.62,7.28,8.78,13.67,14.29,19.65,4.18-9.37,5.05-20.19,2.41-30.11-1.23-4.63-3.36-9.27-7.25-12.07-4.33-3.11-11.7-5.16-13.92.99-2.29,6.33,1.71,15.97,4.48,21.54Z"/>
        <path class="cls-5" d="M198.77,147.83c-.69,4.26-1.34,8.82.47,12.74,1.46,3.15,4.44,5.66,4.9,9.1.17,1.26.04,2.71.52,3.82.23.53.99.51,1.25,0,1.56-2.98,2.05-6.58,4.38-9,1.96-2.02,5.01-2.96,6.4-5.41.54-.95.78-2.04.93-3.12.7-5.05-.43-10.43-3.56-14.44-2.08-2.66-8.04-7.42-11.75-5.46-3.25,1.72-3.06,8.77-3.55,11.77Z"/>
        <path class="cls-4" d="M121.99,229.46c1.92,2.13,3.87,4.28,6.2,5.96,2.89,2.09,6.27,3.38,9.66,4.47,10.88,3.5,22.3,5.1,33.72,5.7.65.03,1.35.05,1.87-.33.5-.37.7-1.01.86-1.61,1.06-3.95,1.59-8.03,1.59-12.12,0-1.01-.04-2.06-.5-2.96-.42-.83-1.15-1.45-1.88-2.01-8.96-6.89-20.71-8.58-31.5-11.94-1.82-.57-3.63-1.19-5.25-2.2-1.74-1.08-3.18-2.56-4.61-4.02-7.88-7.99-16.12-15.64-24.68-22.9-1.46-1.24-3.08-2.53-5-2.65-1.14-.07-2.27.3-3.3.79-3.33,1.6-7.15,5.62-7.23,9.57-.08,3.89,5.03,7.9,7.34,10.57,7.48,8.63,15.05,17.19,22.69,25.68Z"/>
        <path class="cls-3" d="M173.03,204.3c9.08-2.78,19.77-4.39,27.53.94,8.94,6.13,9.66,19.79,3.17,28.31-3.56,4.67-8.7,7.98-13.97,10.76-7.84,4.12-16.24,7.25-24.92,9.3-7.49-9.9-13.66-22.05-15.71-34.23-1.01-6.02.29-6.45,5.58-8.24,6.18-2.09,12.05-4.91,18.33-6.83Z"/>
        <path class="cls-5" d="M126.67,70.38c.39.07.77.16,1.15.26,1.56.4,3.47,1.27,3.1,3.14-.1.51-.44,1.01-.94,1.14-.31.08-.63.03-.94-.03-1.86-.35-3.73-.69-5.59-1.04-2.33-.43-4.66-.35-7.01-.12-1.01.1-2.19.57-2.88-.17-.53-.56-.55-1.51-.05-2.1.62-.73,1.65-.93,2.6-1.04,3.47-.44,7.08-.71,10.56-.05Z"/>
        <path class="cls-5" d="M148.37,74.94c-.33-.03-.65-.05-.98-.05-1.34-.02-3.09.32-3.3,2.26-.06.53.07,1.1.43,1.37.22.16.49.19.75.22,1.57.15,3.13.31,4.7.46,1.96.19,3.78.89,5.57,1.74.77.37,1.58,1.13,2.32.6.57-.41.84-1.33.61-2.04-.29-.88-1.05-1.34-1.77-1.71-2.63-1.35-5.4-2.57-8.33-2.84Z"/>
        <path class="cls-5" d="M111.96,125.03s-.04,0-.05,0c-5.66-.61-12.71-4-17.41-6.96-.23-.15-.3-.46-.16-.69.15-.23.46-.3.69-.16,4.61,2.91,11.49,6.22,16.98,6.82.27.03.47.28.44.55-.03.26-.24.45-.5.45Z"/>
        <path class="cls-5" d="M136.8,97.72c-.24,0-.46-.18-.49-.43-.04-.27.15-.53.42-.57,1.01-.15,1.96-.33,2.49-.98.47-.58.45-1.38.4-1.8-.07-.57-.25-1.13-.45-1.71l-.13-.41c-.95-2.95-1.25-6.14-.87-9.22.03-.27.27-.48.56-.43.27.03.47.28.43.56-.36,2.93-.08,5.97.83,8.79l.13.4c.2.61.41,1.24.49,1.91.12,1-.1,1.91-.62,2.55-.75.93-1.95,1.17-3.12,1.34-.02,0-.05,0-.07,0Z"/>
        <path class="cls-5" d="M133.65,110.93c-2.1,0-4.22-.51-6.06-1.5-2.61-1.4-4.74-3.78-5.83-6.53-.1-.26.02-.55.28-.65.25-.1.55.02.65.28,1.01,2.54,2.97,4.73,5.38,6.02,2.41,1.29,5.32,1.7,7.99,1.13.27-.05.54.12.59.38.06.27-.11.54-.38.59-.86.18-1.74.27-2.62.27Z"/>
        <path class="cls-5" d="M94.91,181.13c-.14,0-.27-.06-.37-.17l-8.83-9.87c-.18-.21-.17-.52.04-.71.2-.18.52-.17.71.04l8.83,9.87c.18.21.17.52-.04.71-.09.08-.21.13-.33.13Z"/>
        <path class="cls-5" d="M90.87,185.32c-.11,0-.22-.04-.32-.11l-6.99-5.69c-.21-.17-.25-.49-.07-.7.17-.22.49-.25.7-.07l6.99,5.69c.21.17.25.49.07.7-.1.12-.24.18-.39.18Z"/>
        <path class="cls-5" d="M86.98,189.51c-.1,0-.2-.03-.29-.09l-2.69-1.95c-.22-.16-.27-.47-.11-.7s.47-.28.7-.11l2.69,1.95c.22.16.27.47.11.7-.1.13-.25.21-.41.21Z"/>
        <path class="cls-5" d="M206.17,180.12c-.05,0-.11,0-.16-.03-.26-.09-.4-.37-.31-.63,1.28-3.75,5.05-6.39,9.04-6.33.28,0,.5.23.49.51,0,.27-.23.49-.5.49-.03,0-.11,0-.16,0-3.43,0-6.82,2.41-7.92,5.66-.07.21-.27.34-.47.34Z"/>
        <path class="cls-5" d="M180.95,199.23c-.27,0-.54,0-.81,0-.28,0-.49-.24-.49-.51,0-.28.26-.45.51-.49,4.49.11,10.79-.62,15.27-4.67.21-.18.52-.17.71.04.19.21.17.52-.04.71-4.46,4.03-10.56,4.94-15.16,4.94Z"/>
        <path class="cls-5" d="M213.5,178.18c-.11,0-.22-.04-.31-.11-1.32-1.04-3.04-1.55-4.7-1.4-.27,0-.52-.18-.54-.46s.18-.52.46-.54c1.93-.17,3.89.42,5.41,1.61.22.17.25.49.08.7-.1.13-.25.19-.39.19Z"/>
        <path class="cls-5" d="M139.76,214.42s-.07,0-.11-.01c-2.35-.53-4.77-.76-7.18-.67-.27.01-.51-.21-.52-.48,0-.28.21-.51.48-.52,2.49-.09,5,.14,7.44.69.27.06.44.33.38.6-.05.23-.26.39-.49.39Z"/>
        <path class="cls-5" d="M149.39,214.11c-.13,0-.26-.05-.35-.15-.2-.2-.2-.51,0-.71,3.36-3.36,20.81-10.69,31.38-11.7.28,0,.52.17.55.45.03.28-.18.52-.45.55-10.07.96-27.51,8.16-30.77,11.41-.1.1-.23.15-.35.15Z"/>
        <path class="cls-5" d="M162.08,285.68c-.13,0-.25-.05-.35-.14-4.73-4.66-10.94-7.86-17.48-9-.27-.05-.45-.31-.41-.58.05-.27.31-.46.58-.41,6.74,1.18,13.13,4.48,18.01,9.28.2.19.2.51,0,.71-.1.1-.23.15-.36.15Z"/>
        <path class="cls-5" d="M170.29,332.39c-.76,0-1.51-.11-2.22-.34-1.17-.39-1.82-1.02-1.93-1.88-.22-1.76,1.96-4.2,6.81-7.57-6.58,2-11.59,3.1-19.8,3.11-1.07,0-2.3-.04-3.38-.56-1.05-.5-2.08-1.63-1.98-3.01.1-1.55,1.48-2.54,2.67-3.22,2.13-1.23,5.72-2.55,9.44-3.71-5.29.67-10.73,1.06-14.23.74-2.58-.24-4.14-1.17-4.49-2.69-.76-3.24,3.59-4.82,6.19-5.76.39-.14.75-.27,1.04-.39.68-.28,1.93-.58,3.48-.89-3.61.22-6.83.35-8.5.31-1.33-.03-3-.08-4.38-.87-1.38-.79-2.42-2.64-1.71-4.23.11-.25.41-.37.66-.25.25.11.36.41.25.66-.47,1.05.29,2.37,1.3,2.95,1.16.67,2.68.71,3.91.74,4.31.11,18.88-.91,23.88-1.77.14-.02.27-.05.38-.07.27-.05.53.13.58.4.05.27-.13.53-.4.58-.08.01-.16.03-.25.04-.93.16-2.51.4-4.48.69-4.93.73-12.39,1.83-14.35,2.63-.3.12-.67.25-1.08.4-2.29.83-6.11,2.21-5.55,4.59.31,1.34,2.14,1.78,3.61,1.92,5.61.53,16.33-.85,23.19-2.2.93-.21,1.76-.39,2.46-.52.26-.04.53.12.58.39.06.27-.11.53-.38.59-.74.17-1.57.35-2.46.52-5.47,1.26-14.31,3.82-18.19,6.06-.97.56-2.1,1.34-2.17,2.42-.06.91.69,1.69,1.42,2.04.89.43,1.95.46,2.95.46,9.4,0,14.54-1.49,22.83-4.1.24-.07.5.04.6.26.11.23.03.5-.18.63-8.33,5.32-9.38,7.63-9.27,8.54.06.44.48.8,1.25,1.05,3.54,1.17,8.12-1.36,11.35-3.68,1.16-.83,2.35-1.64,3.58-2.48,1.76-1.2,3.59-2.44,5.56-3.91.22-.17.53-.12.7.1.17.22.12.53-.1.7-1.99,1.49-3.82,2.74-5.6,3.94-1.23.83-2.41,1.63-3.56,2.46-2.79,2.01-6.58,4.16-10.03,4.16Z"/>
        <path class="cls-5" d="M174.78,296.45c-.06,0-.12-.01-.18-.03-.99-.39-1.96-.86-2.89-1.39-.24-.14-.32-.44-.18-.68.14-.24.44-.32.68-.18.88.51,1.81.95,2.75,1.32.26.1.38.39.28.65-.08.2-.27.32-.47.32Z"/>
        <path class="cls-5" d="M64.35,261.57c-.17,0-.34-.09-.44-.25-.14-.24-.05-.55.19-.68,3.76-2.12,6.4-3.87,6.07-7.11-1.02-9.9-4.68-20.45-8.23-30.65-1.63-4.69-3.31-9.54-4.74-14.3-.08-.26.07-.54.34-.62.27-.08.54.07.62.34,1.42,4.74,3.1,9.58,4.72,14.26,3.56,10.25,7.24,20.85,8.28,30.87.43,4.14-3.29,6.23-6.57,8.08-.08.04-.16.06-.25.06Z"/>
        <path class="cls-3" d="M171.72,143.61c-5.41,0-10.8-1.02-15.86-3.01-.26-.1-.38-.39-.28-.65s.39-.39.65-.28c7.01,2.76,14.65,3.6,22.09,2.42.26-.04.53.14.57.42.04.27-.14.53-.42.57-2.24.35-4.5.53-6.75.53Z"/>
        <path class="cls-3" d="M202.2,140.77c-.13,0-.27-.05-.37-.16-.19-.2-.17-.52.03-.71,3.51-3.25,7.51-5.88,11.87-7.84.25-.12.55,0,.66.25.11.25,0,.55-.25.66-4.26,1.91-8.17,4.49-11.6,7.66-.1.09-.22.13-.34.13Z"/>
        <path class="cls-3" d="M153.24,147.84s-.05,0-.08,0c-3.1-.5-5.4-1.6-7.24-3.46-.13-.13-.17-.31-.13-.49,1.42-5,2.88-10.17,5.85-14.62,3.96-5.94,10.59-10.51,19.69-13.59.26-.09.54.05.63.31s-.05.54-.31.63c-8.89,3.01-15.34,7.45-19.18,13.2-2.83,4.23-4.27,9.21-5.64,14.05,1.65,1.58,3.71,2.52,6.48,2.97.27.04.46.3.42.57-.04.25-.25.42-.49.42Z"/>
        <path class="cls-3" d="M94.61,62.48s-.03,0-.04,0c-5.94-.5-11.88-2.22-17.16-4.97-.25-.13-.34-.43-.21-.67.13-.25.43-.34.67-.21,5.17,2.69,10.98,4.37,16.79,4.86.28.02.48.26.46.54-.02.26-.24.46-.5.46Z"/>
        <path class="cls-3" d="M157.68,123.16c-.21,0-.4-.13-.47-.33-1.07-2.98-.54-6.62,1.58-10.84.45-.91.95-1.8,1.44-2.69,1.23-2.23,2.51-4.55,3.1-7.02.47-1.97.51-4.05.55-6.07.03-1.38.05-2.81.22-4.22.21-1.83.65-3.63,1.08-5.38.41-1.69.84-3.43,1.05-5.17.23-1.94.42-6.73-2.77-9.47-.21-.18-.23-.5-.05-.71.18-.21.5-.23.71-.05,2.51,2.14,3.64,5.91,3.11,10.34-.21,1.8-.65,3.57-1.07,5.29-.42,1.71-.85,3.49-1.06,5.25-.16,1.36-.18,2.76-.21,4.12-.04,2.07-.08,4.21-.58,6.28-.62,2.61-1.93,4.98-3.2,7.28-.49.88-.97,1.76-1.42,2.65-1.99,3.96-2.5,7.35-1.53,10.06.09.26-.04.55-.3.64-.06.02-.11.03-.17.03Z"/>
        <path class="cls-3" d="M59.38,150.16c-.28,0-.5-.22-.5-.5,0-2.56,1.79-5.01,3.69-7.6,1.84-2.5,3.73-5.1,4.02-7.86.51-5-1.07-10.17-2.46-14.74-.88-2.88-1.71-5.61-1.88-7.91-1.1-14.32,5.2-21.45,11.29-28.35,5.46-6.18,10.61-12.01,10.54-22.7,0-.28.22-.5.5-.5.26,0,.5.22.5.5.07,11.06-5.45,17.32-10.79,23.36-5.96,6.74-12.12,13.71-11.05,27.61.17,2.19.98,4.87,1.84,7.7,1.42,4.65,3.02,9.93,2.49,15.13-.31,3.04-2.29,5.74-4.2,8.35-1.8,2.45-3.5,4.77-3.49,7,0,.28-.22.5-.5.5h0Z"/>
        <path class="cls-3" d="M152.59,34.87c-.19,0-.37-.11-.45-.29l-5.54-12.06c-.12-.25,0-.55.25-.66.25-.12.55,0,.66.25l5.54,12.06c.12.25,0,.55-.25.66-.07.03-.14.05-.21.05Z"/>
        <path class="cls-5" d="M85.93,295.12c-.22,0-.42-.14-.48-.36-.08-.27.07-.54.34-.62,3.52-1.03,5.96-1.05,10.05-.08.27.06.43.33.37.6-.06.27-.33.43-.6.37-3.9-.92-6.22-.9-9.54.07-.05.01-.09.02-.14.02Z"/>
        <path class="cls-5" d="M88.62,165.59c-.16,0-.31-.08-.41-.21-.4-.58-.84-1.18-1.41-1.6-.56-.41-1.22-.58-1.75-.45-.55.14-.97.65-.92,1.13.03.27-.17.52-.45.55-.25.02-.52-.17-.55-.45-.1-.98.64-1.94,1.67-2.2.83-.21,1.77.02,2.58.62.69.51,1.19,1.18,1.64,1.83.16.23.1.54-.13.7-.09.06-.19.09-.29.09Z"/>
        <path class="cls-5" d="M161.21,179.71c-.07,0-.15-.02-.22-.05-1.51-.74-2.39-2.54-2.04-4.19s1.87-2.94,3.55-3.01c.29,0,.51.2.52.48.01.28-.2.51-.48.52-1.22.05-2.37,1.03-2.62,2.22-.25,1.19.41,2.55,1.51,3.08.25.12.35.42.23.67-.09.18-.26.28-.45.28Z"/>
        <path class="cls-5" d="M162.96,185.36s-.08,0-.12,0c-2.23-.03-4.26-.94-5.56-2.5-.18-.21-.15-.53.06-.7.21-.18.53-.15.7.06,1.11,1.33,2.86,2.11,4.81,2.14,1.91,0,3.72-.7,4.87-2.01.18-.21.5-.23.71-.04.21.18.23.5.04.71-1.32,1.49-3.32,2.34-5.51,2.34Z"/>
        <path class="cls-5" d="M155.46,156.99c-.88-.02-1.15,1.13-.34,1.51.42.21,4.06.52,6.12.62.17,0,.36.01.51-.09.27-.18.28-.61.09-.85s-.5-.33-.8-.41c-1.62-.41-5.54-.82-5.58-.78Z"/>
        <path class="cls-5" d="M180.02,162.45c.79.37.52,1.52-.37,1.51-.47,0-3.87-1.35-5.75-2.18-.16-.07-.32-.15-.41-.3-.17-.28.02-.67.3-.8s.6-.07.9,0c1.63.35,5.32,1.74,5.34,1.79Z"/>
        <path class="cls-5" d="M204.29,188.55c-.78,0-1.57-.05-2.34-.15-.27-.04-.47-.29-.43-.56.03-.27.3-.47.56-.43,1.04.13,2.11.17,3.16.11.31,0,.51.2.53.47.02.28-.2.51-.47.53-.33.02-.67.03-1,.03Z"/>
        <path class="cls-5" d="M189.17,321.93c-.19,0-.37-.11-.46-.3-.11-.25,0-.55.25-.66,7.86-3.51,15.91-7.87,23.7-12.08l3.32-1.8c.24-.13.55-.04.68.2.13.24.04.55-.2.68l-3.32,1.79c-7.8,4.22-15.87,8.59-23.76,12.12-.07.03-.14.04-.2.04Z"/>
        <path class="cls-5" d="M190.04,321.8c-.2,0-.4,0-.59-.02-.28-.02-.48-.26-.46-.53s.25-.5.53-.46c.67.05,1.48-.01,2.26-.08.82-.06,1.67-.13,2.41-.08.28.02.48.26.46.53-.02.28-.26.49-.53.46-.67-.04-1.48.02-2.26.08-.61.05-1.23.09-1.82.09Z"/>
        <path class="cls-3" d="M200.94,157.36c-.17,0-.34-.09-.43-.24-.77-1.29-.9-2.96-.33-4.36.11-.25.4-.38.65-.27.26.11.38.4.27.65-.46,1.11-.36,2.44.26,3.47.14.24.06.54-.17.69-.08.05-.17.07-.26.07Z"/>
        <path class="cls-3" d="M224.44,180.68c-.09,0-.18-.02-.26-.07-.24-.14-.31-.45-.17-.69,2.87-4.72,4.29-10.35,3.99-15.86-.02-.28.2-.51.47-.53.31-.03.51.2.53.47.31,5.71-1.16,11.55-4.13,16.44-.09.16-.26.24-.43.24Z"/>
        <path class="cls-3" d="M37.53,110.03h-.01c-.28,0-.49-.24-.49-.51.1-3.95,1.77-7.81,4.58-10.59,1.28-1.27,2.8-2.33,4.27-3.34,2.31-1.6,4.49-3.12,5.82-5.41,1.88-3.22,1.61-7.36,1.39-10.69-.02-.28.19-.51.47-.53.26,0,.51.19.53.47.22,3.46.5,7.77-1.53,11.26-1.45,2.48-3.82,4.13-6.12,5.72-1.43.99-2.91,2.02-4.13,3.23-2.63,2.6-4.19,6.21-4.28,9.91,0,.27-.23.49-.5.49Z"/>
        <path class="cls-3" d="M83.68,130.92c-.11,0-.22-.03-.31-.11-.22-.17-.26-.48-.09-.7,2.68-3.43,5.24-7.11,4.59-11.04-.19-1.14-.67-2.32-1.12-3.45-.86-2.12-1.74-4.3-.89-6.5.1-.26.39-.39.65-.29.26.1.39.39.29.65-.71,1.83.07,3.74.88,5.76.48,1.18.97,2.41,1.18,3.66.72,4.34-2.09,8.38-4.79,11.82-.1.13-.25.19-.39.19Z"/>
        <path class="cls-3" d="M164.31,57.72c-.11,0-.22-.03-.31-.11-2.69-2.09-4.69-5.04-5.65-8.31-.08-.26.07-.54.34-.62.26-.08.54.07.62.34.9,3.07,2.79,5.84,5.31,7.8.22.17.26.48.09.7-.1.13-.25.19-.39.19Z"/>
        <path class="cls-3" d="M122.1,57.41c-.26,0-.47-.2-.5-.46-.02-.27.18-.52.46-.54,4.03-.34,7.93-1.39,11.59-3.1.25-.12.55,0,.67.24.12.25,0,.55-.24.67-3.77,1.77-7.78,2.84-11.93,3.19-.01,0-.03,0-.04,0Z"/>
        <path class="cls-5" d="M163.03,251.62c-.25,0-.44-.04-.55-.11-1.99-1.27-3.4-4.11-4.4-6.45-.11-.25,0-.55.26-.66.25-.11.55,0,.66.26.95,2.21,2.26,4.88,4.02,6,1.63.4,24.52-9.16,32.63-16.93,6.02-5.77,11.37-16.62,9.5-24.09-.07-.27.1-.54.36-.61.26-.07.54.1.61.36,1.96,7.82-3.55,19.09-9.78,25.05-7.33,7.02-29.12,17.16-33.3,17.16Z"/>
        <path class="cls-5" d="M150.63,262.81c-.07,0-.15-.02-.21-.05-1.66-.79-2.98-2.23-3.64-3.94-.1-.26.03-.55.29-.65.26-.1.55.03.65.29.57,1.48,1.71,2.72,3.14,3.4.25.12.36.42.24.67-.08.18-.26.29-.45.29Z"/>
        <path class="cls-5" d="M203.03,188.51c.14,2.7.74,5.38,1.76,7.88.17.42.39.88.8,1.07.4.19.89.08,1.25-.17s.61-.63.82-1.02c.93-1.71,1.2-3.82.51-5.63-.31-.82-1.09-2.43-2.02-2.67-.3-.08-3.12.74-3.13.54Z"/>
        <path class="cls-5" d="M126.1,84.65c-.23,0-.43-.15-.49-.38-.43-1.79-1.75-3.15-3.53-3.63-2.03-.55-4.2.13-5.81,1.81-.19.2-.51.21-.71.02s-.21-.51-.02-.71c1.86-1.95,4.4-2.73,6.79-2.08,2.15.58,3.73,2.21,4.24,4.36.06.27-.1.54-.37.6-.04,0-.08.01-.12.01Z"/>
        <path class="cls-5" d="M154.34,89.62c-.23,0-.43-.15-.49-.38-.43-1.79-1.75-3.15-3.53-3.63-2.03-.54-4.2.13-5.81,1.81-.19.2-.51.21-.71.02-.2-.19-.21-.51-.02-.71,1.86-1.95,4.4-2.73,6.79-2.08,2.15.58,3.73,2.21,4.25,4.36.06.27-.1.54-.37.6-.04,0-.08.01-.12.01Z"/>
      </g>
      <g>
        <path class="cls-4" d="M136.14,260.98c-1.85-1.74-3.7-3.72-4.17-6.21-.47-2.49,1.12-5.52,3.66-5.62-1.38-1.99-2.83-4.24-2.45-6.63.38-2.39,3.74-4.15,5.28-2.29-1.54-1.86-1.03-4.92.05-6.85.6-1.07,1.44-2.01,2.47-2.68,1.13-.73,2.2-.78,3.45-1.02-.12-1.72-.54-3.45-.73-5.17-.2-1.81-.35-3.63-.49-5.45-.11-1.38-.22-2.79.12-4.14.15-.59.43-1.21.98-1.49.26-.13.56-.17.86-.17,1.01.03,1.94.6,2.61,1.35s1.11,1.68,1.51,2.61c1.74,4.05,1.72,8.6,3.67,12.61,2.91,5.97,7.7,10.88,12.65,15.19,3.79,3.3,9.72,9.82,15.09,9.69,1.61-.04,3.37-.56,4.75.28.88.54,1.39,1.51,1.84,2.44,3.28,6.65,6.47,15.08,1.14,20.79-2.34,2.5-5.75,3.66-9.17,3.59-15.8-.33-31.95-10.28-43.13-20.83Z"/>
        <path class="cls-4" d="M178.94,249.63c-1.95.87-3.65,2.25-5.3,3.63-9.66,8.01-14.01,18.58-2.06,26.53,9.55,6.35,21.65,7.99,32.89,7.44,1.58-.08,3.2-.21,4.6-.93,1.22-.63,2.17-1.67,3.03-2.74,4.46-5.55,6.55-12.13,7.14-19.15s-.82-10.87-8.33-13.48c-7.76-2.7-16.23-2.68-24.34-2.52-2.3.05-4.64.11-6.8.88-.28.1-.55.21-.81.33Z"/>
        <path class="cls-1" d="M229.9,257.96c-1.18-2.31-.69-5.36,1.15-7.18,1.19-1.18,2.83-1.16,3.99-2.18,1.97-1.74,3.5-4.82,4.98-6.99,9.04-13.36,13.87-28.77,21.46-43.03,5-9.39,8.46-19.49,12.01-29.49,2.76-7.77,5.33-14.65,10.94-20.82,6.34-6.99,14.57-8.53,23.3-6.16,2.53.69,4.43,2.72,6.19,4.66,2.29,2.53,4.59,5.06,6.88,7.59,1.44,1.59,2.9,3.2,3.93,5.09.88,1.61,1.42,3.38,1.9,5.15,1.23,4.5,2.68,9.35,2.59,14.01-.37,18.77-8.25,38.05-14.93,55.33-1.86,4.8-3.72,9.62-6.22,14.11-2.54,4.58-5.71,8.77-8.94,12.89-9.56,12.18-19.76,23.87-30.53,34.98-2.66,2.74-5.42,5.49-8.85,7.16-3.53,1.71-7.53,2.16-11.44,2.3-9.34.32-19-.8-27.67-4.27-8.22-3.29-17.13-5.04-25.4-8.51-3.17-1.33-10-3.39-12.17-6.09-2.57-3.21.46-9.34,1.93-12.38,2.47-5.11,4.93-10.21,7.4-15.32,1.26-2.6,2.57-5.28,4.77-7.15,3.75-3.19,9.4-1.76,13.81-1.08,5.89.91,11.78,1.89,17.65,2.93.34.06.6.11.9.29"/>
        <path class="cls-5" d="M236.59,260.68c-.14,0-.29-.06-.39-.18-1.9-2.32-4.29-4.32-6.92-5.77-.24-.13-.33-.44-.2-.68.13-.24.44-.33.68-.2,2.74,1.51,5.23,3.59,7.21,6.01.17.21.14.53-.07.7-.09.08-.21.11-.32.11Z"/>
        <path class="cls-5" d="M240.11,252.74c-.14,0-.28-.06-.38-.17l-1.79-2.04c-.18-.21-.16-.52.05-.71.21-.18.52-.16.71.05l1.79,2.04c.18.21.16.52-.05.71-.1.08-.21.12-.33.12Z"/>
        <path class="cls-5" d="M148.14,242.33c-.16,0-.33-.08-.42-.23-2.09-3.25-3.54-6.98-4.2-10.78-.05-.27.13-.53.41-.58.28-.06.53.13.58.41.64,3.67,2.04,7.27,4.05,10.41.15.23.08.54-.15.69-.08.05-.18.08-.27.08Z"/>
        <path class="cls-5" d="M142.69,249.35c-.15,0-.31-.07-.4-.21-1.9-2.61-3.61-5.38-5.07-8.25-.13-.25-.03-.55.22-.67.25-.12.55-.03.67.22,1.44,2.82,3.12,5.55,4.99,8.12.16.22.11.54-.11.7-.09.06-.19.1-.29.1Z"/>
        <path class="cls-5" d="M140.24,256.65c-.14,0-.28-.06-.38-.18l-4.74-5.57c-.18-.21-.15-.53.06-.71.21-.18.53-.15.71.06l4.74,5.57c.18.21.15.53-.06.71-.09.08-.21.12-.32.12Z"/>
        <path class="cls-5" d="M212.69,296.17c-.09,0-.18-.02-.26-.07-4.91-2.96-9.83-6.07-14.61-9.25-.23-.15-.29-.46-.14-.69.15-.23.46-.29.69-.14,4.77,3.17,9.68,6.27,14.58,9.23.24.14.31.45.17.69-.09.16-.26.24-.43.24Z"/>
        <path class="cls-1" d="M188.42,249.38c-1.13,1.32-1.98,2.88-2.78,4.44-5.02,9.8-9.01,20.65-7.85,31.6.17,1.57.8,3.5,2.38,3.66.97.1,1.86-.58,2.84-.67.85-.07,1.67.31,2.44.69,2.64,1.3,7.26,4.89,7.29-.23.08-11.68,5.63-22.32,11.16-32.29,1.15-2.07,6.83-11.3-.08-9.95-1.46.28-2.81,1.16-4.3,1.16-1.56,0-2.96-.98-4.49-1.27-2.1-.39-4.27.57-5.82,2.03-.28.26-.54.54-.79.83Z"/>
        <path class="cls-4" d="M175.67,241.55c-2.02-5.38-4.76-10.46-7.73-15.37-.84-1.4-1.79-2.85-3.27-3.53s-3.62-.14-4.05,1.43c-.18.66-.02,1.37.15,2.03,1.07,3.97,3.11,8.04,1.98,11.99-.66,2.33-2.39,4.43-2.2,6.84.1,1.28.74,2.45,1.44,3.53,2.12,3.32,4.84,6.25,7.98,8.62,2.39,1.8,5.21,3.33,8.21,3.21,4.54-.18,6.05-2.94,3.57-6.25-2.9-3.87-4.39-8-6.08-12.5Z"/>
        <path class="cls-5" d="M176.4,254.38c-.08,0-.16-.02-.23-.06-.24-.13-.34-.43-.21-.68.53-1,1.18-1.94,1.93-2.79.18-.21.5-.23.71-.04.21.18.23.5.04.71-.7.79-1.3,1.66-1.79,2.59-.09.17-.26.27-.44.27Z"/>
        <path class="cls-5" d="M191.69,291.01c-.22,0-.42-.14-.48-.36-1.24-4.29-.21-8.75.79-13.07.16-.68.31-1.35.46-2.02,1.21-5.56,3.02-11.04,4.77-16.34.68-2.07,1.38-4.17,2.72-5.96,1.54-2.05,3.87-3.5,6.39-3.97.28-.06.53.13.58.4.05.27-.13.53-.4.58-2.28.42-4.39,1.73-5.78,3.59-1.24,1.66-1.91,3.68-2.56,5.65-1.75,5.3-3.55,10.76-4.75,16.27-.15.67-.3,1.35-.46,2.03-.97,4.19-1.97,8.53-.81,12.57.08.27-.08.54-.34.62-.05.01-.09.02-.14.02Z"/>
        <path class="cls-5" d="M182.77,287.67c-.23,0-.44-.16-.49-.39-.58-2.57-.49-5.27.24-7.81.08-.26.36-.42.62-.34.27.08.42.35.34.62-.69,2.37-.76,4.9-.23,7.31.06.27-.11.54-.38.6-.04,0-.07.01-.11.01Z"/>
        <path class="cls-5" d="M144.05,232.41c-.26,0-.48-.2-.5-.46-.17-2.11-.36-5.08-.54-7.96-.18-2.87-.36-5.84-.53-7.94-.07-.85.08-2.06.73-2.7.32-.31.73-.45,1.17-.41.27.03.48.27.45.55-.03.28-.28.47-.55.45-.15-.01-.27.02-.37.13-.32.31-.5,1.11-.43,1.9.17,2.11.36,5.08.54,7.96.18,2.87.36,5.84.53,7.94.02.28-.18.52-.46.54-.01,0-.03,0-.04,0Z"/>
      </g>
      <path class="cls-5" d="M229.24,253.14c-.18,0-.35-.1-.44-.26-.13-.24-.04-.55.2-.68,4.52-2.42,7.45-7.03,10.02-11.1,8.38-13.22,17.04-26.89,22.43-41.88.52-1.44,1.08-3.04,1.68-4.78,6.25-17.93,16.7-47.93,35.5-53.4.27-.07.54.08.62.34.08.26-.08.54-.34.62-18.3,5.33-28.65,35.03-34.83,52.77-.6,1.74-1.17,3.34-1.68,4.79-5.43,15.09-14.12,28.81-22.53,42.07-2.51,3.97-5.64,8.9-10.39,11.45-.08.04-.16.06-.24.06Z"/>
      <path class="cls-5" d="M245.35,166.46c-3.68,0-7.34-.76-10.67-2.32-.25-.12-.36-.42-.24-.67.12-.25.42-.36.67-.24,8.1,3.79,18.29,2.67,25.37-2.79.22-.17.53-.13.7.09.17.22.13.53-.09.7-4.46,3.44-10.1,5.22-15.74,5.22Z"/>
      <path class="cls-5" d="M270.95,155.03c-.14,0-.29-.06-.38-.18-.18-.21-.15-.53.07-.7l8.61-7.13c.21-.18.53-.15.7.07.18.21.15.53-.07.7l-8.61,7.13c-.09.08-.21.12-.32.12Z"/>
      <path class="cls-5" d="M177.52,172.39s-.04,0-.06,0c-.27-.03-.47-.28-.44-.56.2-1.64-.94-3.33-2.53-3.77-1.59-.44-3.43.43-4.1,1.94-.11.25-.41.36-.66.25-.25-.11-.37-.41-.25-.66.87-1.94,3.23-3.06,5.28-2.49,2.05.57,3.51,2.74,3.25,4.85-.03.25-.25.44-.5.44Z"/>
      <path class="cls-5" d="M160.35,169.08s-.04,0-.06,0c-.27-.03-.47-.28-.44-.56.2-1.64-.94-3.33-2.53-3.77-1.59-.43-3.43.43-4.1,1.94-.11.25-.41.36-.66.25-.25-.11-.37-.41-.25-.66.87-1.94,3.23-3.06,5.28-2.49,2.05.57,3.51,2.74,3.25,4.85-.03.25-.25.44-.5.44Z"/>
      <path class="cls-5" d="M137.12,240.65c-.25,0-.47-.19-.5-.44-.31-2.82-.24-6.64,1.86-8.89,1.19-1.27,2.87-1.88,5.02-1.77.28.01.49.25.48.52-.01.28-.2.52-.52.48-1.83-.08-3.26.41-4.24,1.46-1.84,1.97-1.88,5.49-1.59,8.09.03.27-.17.52-.44.55-.02,0-.04,0-.06,0Z"/>
      <path class="cls-5" d="M242.23,302.45c-5.52,0-12.15-.2-20.17-.54-.28-.01-.49-.25-.48-.52.01-.28.24-.5.52-.48,31.86,1.33,40.49.33,46.15-5.33,1.75-1.75,3.34-3.33,4.8-4.77,10.21-10.1,14.02-13.88,20.09-26.15,3.92-7.92,8.32-15.74,12.58-23.3,5.38-9.55,10.94-19.43,15.57-29.59.12-.25.41-.36.66-.25.25.11.36.41.25.66-4.64,10.21-10.22,20.1-15.6,29.67-4.25,7.55-8.65,15.35-12.55,23.25-6.14,12.42-9.99,16.23-20.28,26.41-1.46,1.45-3.05,3.02-4.8,4.77-4.61,4.6-11.45,6.16-26.73,6.16Z"/>
      <path class="cls-3" d="M178.07,55.67s-.04,0-.06,0c-.27-.04-.47-.29-.43-.56,1.01-7.89-.58-16.05-4.5-22.97-.14-.24-.05-.55.19-.68.24-.14.54-.05.68.19,4.02,7.11,5.66,15.49,4.62,23.59-.03.25-.25.44-.5.44Z"/>
    </g>
  </g>
</svg>