<?xml version="1.0" encoding="UTF-8"?>
<svg version="1.1" xmlns="http://www.w3.org/2000/svg" width="282" height="249">
<path d="M0 0 C1.38735352 -0.01836914 1.38735352 -0.01836914 2.80273438 -0.03710938 C8.13758083 -0.04848431 12.71209094 0.1751945 17.6875 2.1875 C20.00487916 4.65007835 21.6875 7.73666382 21.6875 11.1875 C23.18990234 11.11789063 23.18990234 11.11789063 24.72265625 11.046875 C38.23683002 10.60398206 38.23683002 10.60398206 43.6875 15.1875 C46.21728079 18.73788569 47.06584115 21.18353149 47.09155273 25.52514648 C47.10423691 26.56650253 47.11692108 27.60785858 47.12998962 28.68077087 C47.12705399 29.79545242 47.12411835 30.91013397 47.12109375 32.05859375 C47.1263356 33.21367935 47.13157745 34.36876495 47.13697815 35.55885315 C47.14339481 37.99894406 47.142066 40.43906592 47.13354492 42.87915039 C47.12503845 46.6081463 47.15379841 50.33560862 47.18554688 54.06445312 C47.1871591 56.43749954 47.18658095 58.81054867 47.18359375 61.18359375 C47.19482773 62.29625107 47.20606171 63.40890839 47.21763611 64.55528259 C47.16244879 70.70003396 46.96762245 74.60693546 42.6875 79.1875 C39.11260772 81.59228587 35.51616173 81.48352234 31.35205078 81.47802734 C30.25372421 81.48810318 30.25372421 81.48810318 29.13320923 81.49838257 C26.71634099 81.51735626 24.29975055 81.52128643 21.8828125 81.5234375 C20.19896328 81.52986594 18.51511519 81.53659434 16.83126831 81.54360962 C13.30236217 81.55558084 9.77355392 81.55929061 6.24462891 81.55810547 C1.72967573 81.5579023 -2.78464782 81.5852023 -7.29945183 81.61964989 C-10.77738307 81.64192216 -14.25516287 81.64594291 -17.73315811 81.64488602 C-19.397291 81.64724157 -21.06142809 81.65606255 -22.72549057 81.67155075 C-25.05685866 81.69121791 -27.38687029 81.68537098 -29.71826172 81.67333984 C-30.40106201 81.68457886 -31.0838623 81.69581787 -31.78735352 81.70739746 C-36.72022141 81.64293424 -39.55436029 80.33488304 -43.3125 77.1875 C-45.45981824 74.15026882 -45.57703502 71.53973962 -45.61889648 67.87158203 C-45.63488388 66.8101297 -45.65087128 65.74867737 -45.66734314 64.65505981 C-45.67270584 63.5133432 -45.67806854 62.37162659 -45.68359375 61.1953125 C-45.69262222 60.01661591 -45.7016507 58.83791931 -45.71095276 57.62350464 C-45.7254586 55.1303766 -45.73434281 52.63721047 -45.73803711 50.14404297 C-45.74993395 46.33365638 -45.79912074 42.52488863 -45.84960938 38.71484375 C-45.85907355 36.29167457 -45.86630861 33.86849544 -45.87109375 31.4453125 C-45.89062607 30.30764435 -45.91015839 29.1699762 -45.93028259 27.99783325 C-45.88004353 19.1716587 -45.88004353 19.1716587 -42.95581055 15.50683594 C-37.9725554 11.13434828 -33.39036416 10.94074785 -26.9375 11.0625 C-25.69226563 11.08054687 -24.44703125 11.09859375 -23.1640625 11.1171875 C-21.75253906 11.15199219 -21.75253906 11.15199219 -20.3125 11.1875 C-20.065 10.094375 -19.8175 9.00125 -19.5625 7.875 C-18.27408675 4.07418091 -17.76196027 3.01368485 -14.3125 1.1875 C-9.60609656 -0.24700526 -4.87711757 0.00335658 0 0 Z M-11.125 35.5 C-14.43356647 39.56481024 -15.58319706 42.9939761 -15.1875 48.1875 C-14.29163669 53.58327443 -11.70527653 56.92736885 -7.6875 60.5625 C-3.10979761 62.76657893 0.69302411 62.9846639 5.6875 62.1875 C10.54872924 59.84690814 13.20938785 56.96016043 15.6875 52.1875 C16.95449773 47.92656928 16.87349861 44.86174497 15.6875 40.5625 C12.95032197 35.94351207 9.88840196 32.313161 4.69921875 30.48828125 C-1.619121 29.34729951 -6.21946416 31.46655942 -11.125 35.5 Z " fill="#FBFEFD" transform="translate(139.3125,83.8125)"/>
<path d="M0 0 C7.38629788 5.22704467 12.13967009 11.41901027 15 20 C15.83768794 31.32938602 15.08157966 40.42762354 7.5625 49.375 C5.55907409 51.55971039 4.03220095 52.98266987 1.40112305 54.39868164 C-2.45438996 58.57565074 -1.50766357 62.94272238 -1.296875 68.41015625 C-1.24966748 70.86730741 -1.20488008 73.32450589 -1.16210938 75.78173828 C-1.14736698 76.43601901 -1.13262459 77.09029974 -1.11743546 77.76440716 C-0.93562182 85.9045153 -1.00922874 94.0424011 -1.078125 102.18359375 C-1.08459549 102.965779 -1.09106598 103.74796425 -1.09773254 104.55385208 C-1.12466578 107.75161008 -1.15242798 110.94935238 -1.18383026 114.14706993 C-1.22378234 118.22770532 -1.25582543 122.30810713 -1.27099609 126.38891602 C-1.28624339 130.427395 -1.32073987 134.46530354 -1.36830902 138.50352669 C-1.3829391 140.01470041 -1.39103021 141.52595472 -1.39188385 143.03719902 C-1.40888892 157.98240257 -4.39238579 170.01289178 -14.94921875 181.03515625 C-25.01610408 190.35048629 -37.29856432 193.46915761 -50.78881836 193.40405273 C-51.80502762 193.41091599 -52.82123688 193.41777924 -53.86824036 193.42485046 C-57.19225456 193.44299406 -60.51579117 193.43929885 -63.83984375 193.43359375 C-66.17192231 193.43816133 -68.50399954 193.44346862 -70.83607483 193.44947815 C-75.71035246 193.45838474 -80.58446602 193.45601382 -85.45874023 193.44604492 C-91.68014283 193.43455563 -97.90097778 193.45477937 -104.12230587 193.48396206 C-108.93440804 193.50237773 -113.74637551 193.50202092 -118.5585041 193.49632454 C-120.85124063 193.496172 -123.14398668 193.50216024 -125.43668938 193.51461601 C-148.37084593 193.621681 -148.37084593 193.621681 -158 189 C-159.14855469 188.45601562 -160.29710937 187.91203125 -161.48046875 187.3515625 C-169.69531028 182.11208204 -174.87099391 175.79503421 -179 167 C-179.3454335 166.28488251 -179.690867 165.56976501 -180.04676819 164.83297729 C-184.4371535 153.97795429 -183.55855567 142.50487531 -183.49609375 130.9921875 C-183.49624896 128.656748 -183.49774162 126.32130824 -183.50050354 123.98587036 C-183.50188267 119.10911569 -183.4894089 114.23265686 -183.46655273 109.35595703 C-183.43813841 103.12435996 -183.44092078 96.89325268 -183.45364285 90.66161919 C-183.46061675 85.84530497 -183.45279165 81.02910279 -183.44038582 76.21280289 C-183.43589021 73.91563472 -183.43551787 71.61845445 -183.43945122 69.32128525 C-183.44238105 66.10570594 -183.42577259 62.89078836 -183.40405273 59.67529297 C-183.40855438 58.73891998 -183.41305603 57.802547 -183.41769409 56.83779907 C-183.27881976 44.38274163 -178.7873123 33.82197226 -170.25 24.75 C-158.58726373 13.7537058 -145.34679543 10.83203717 -129.80175781 10.87060547 C-128.91943985 10.86885315 -128.03712189 10.86710083 -127.12806702 10.86529541 C-124.23639918 10.86092432 -121.34479337 10.86379707 -118.453125 10.8671875 C-116.43389881 10.86651334 -114.41467269 10.86554238 -112.39544678 10.86428833 C-108.17589541 10.86281799 -103.95636529 10.86494545 -99.73681641 10.86962891 C-94.32746323 10.87534046 -88.91815952 10.87203398 -83.50880814 10.86605644 C-79.34472276 10.86244539 -75.18064914 10.86359168 -71.01656342 10.86618423 C-69.02145125 10.86685123 -67.02633803 10.86603299 -65.03122711 10.86370468 C-62.24767721 10.86116767 -59.46420795 10.86503297 -56.68066406 10.87060547 C-55.85669632 10.86858124 -55.03272858 10.86655701 -54.18379211 10.86447144 C-50.61863055 10.87770576 -47.43038747 11.03949791 -44 12 C-43.73316406 11.4121875 -43.46632812 10.824375 -43.19140625 10.21875 C-39.10206785 2.60319521 -32.08943765 -1.15208511 -24.08203125 -3.58203125 C-15.61112023 -5.28257061 -7.46998795 -4.34728807 0 0 Z M-56.6574707 13.43579102 C-64.56415755 13.97277605 -72.41107782 14.11042709 -80.3332119 14.04459953 C-82.56055226 14.02670018 -84.78781634 14.01675624 -87.01521301 14.00868225 C-93.33370132 13.98465463 -99.65208406 13.9487449 -105.97045898 13.90405273 C-109.87394361 13.87698425 -113.77737158 13.86013586 -117.680933 13.84918404 C-119.14586823 13.8430675 -120.61079372 13.83318472 -122.07567406 13.81910515 C-138.72673829 13.66026424 -154.36257627 14.27759025 -166.9375 26.4375 C-174.94908583 35.08653569 -179.39820519 42.72756583 -179.69921875 54.56640625 C-179.73254807 55.57562637 -179.76587738 56.5848465 -179.80021667 57.62464905 C-180.26077102 74.66500686 -180.03565911 91.72516614 -179.86791992 108.76831055 C-179.81798562 113.94575753 -179.79218755 119.12304637 -179.77148914 124.30068111 C-179.75110147 128.32869634 -179.71323709 132.35641293 -179.6706295 136.38424873 C-179.65339972 138.2942387 -179.6426199 140.2042991 -179.63868141 142.11436272 C-179.63156416 144.77592477 -179.59958203 147.43613252 -179.56176758 150.09741211 C-179.5652269 150.86891602 -179.56868622 151.64041992 -179.57225037 152.43530273 C-179.33574397 163.75341308 -172.74003065 171.78502591 -165.34765625 179.7890625 C-151.25480708 193.22723164 -128.71258659 190.16065901 -110.6953125 190.16796875 C-108.79539975 190.1711932 -106.89548722 190.1745581 -104.99557495 190.17805481 C-101.04749984 190.18398749 -97.09944643 190.18590045 -93.15136719 190.18530273 C-88.11845814 190.18520059 -83.08568849 190.19893281 -78.05281258 190.21607494 C-74.14237843 190.22723543 -70.23197782 190.22922082 -66.32152939 190.22869301 C-64.46617013 190.22986393 -62.61080974 190.23423511 -60.75546646 190.24202538 C-43.72324683 190.30694411 -28.73127244 189.67208825 -15.625 177.3125 C-6.92699272 168.04022815 -4.01439465 159.22810318 -3.42993164 146.87597656 C-3.38739038 145.99275852 -3.34484911 145.10954048 -3.30101871 144.19955826 C-2.90265638 135.12015921 -2.96710801 126.06841181 -3.12109375 116.984375 C-3.14550083 115.26418832 -3.16933828 113.54399348 -3.19264221 111.8237915 C-3.2544336 107.37205443 -3.32377668 102.92046856 -3.39489746 98.46887207 C-3.46655096 93.89598268 -3.53078001 89.32298902 -3.59570312 84.75 C-3.72335506 75.83321869 -3.8590148 66.91657979 -4 58 C-5.654552 58.24121582 -5.654552 58.24121582 -7.3425293 58.48730469 C-17.4860874 59.90920389 -26.83585166 59.26053621 -35.375 53.125 C-41.03403084 48.47732206 -45.12094178 43.14626285 -47 36 C-47.53799072 28.58604567 -47.40091754 21.32349574 -46 14 C-49.69083037 12.76972321 -52.85097525 13.14121542 -56.6574707 13.43579102 Z " fill="#F9FCFC" transform="translate(232,23)"/>
<path d="M0 0 C0.99 0.495 0.99 0.495 2 1 C-0.625 5.875 -0.625 5.875 -4 7 C-5.18391223 9.37625345 -5.18391223 9.37625345 -6 12 C-7.22934015 15.68802044 -8.93859378 16.72356973 -12 19 C-12 17.02 -12 15.04 -12 13 C-12.96188232 13.0729126 -13.92376465 13.1458252 -14.91479492 13.22094727 C-25.83646654 13.95861242 -36.73453493 14.07179825 -47.67578125 14.02734375 C-48.42373837 14.02466114 -49.17169548 14.02197853 -49.94231796 14.01921463 C-56.98839428 13.99284252 -64.03437487 13.95403167 -71.08032227 13.90405273 C-74.97314477 13.87698724 -78.86591056 13.86013853 -82.75881004 13.84918404 C-84.21816319 13.84307013 -85.67750661 13.83319101 -87.13680458 13.81910515 C-103.29886304 13.66420449 -119.15696308 14.11604857 -131.4375 25.9375 C-139.20664087 34.41585705 -143.40410524 41.95961423 -143.69921875 53.56640625 C-143.73254807 54.57562637 -143.76587738 55.5848465 -143.80021667 56.62464905 C-144.26077102 73.66500686 -144.03565911 90.72516614 -143.86791992 107.76831055 C-143.81798562 112.94575753 -143.79218755 118.12304637 -143.77148914 123.30068111 C-143.75110147 127.32869634 -143.71323709 131.35641293 -143.6706295 135.38424873 C-143.65339972 137.2942387 -143.6426199 139.2042991 -143.63868141 141.11436272 C-143.63156416 143.77592477 -143.59958203 146.43613252 -143.56176758 149.09741211 C-143.5652269 149.86891602 -143.56868622 150.64041992 -143.57225037 151.43530273 C-143.35599654 161.78421828 -137.86414974 169.62041044 -131 177 C-123.58690993 183.95163266 -115.5242768 187.11166926 -105.42138672 187.5949707 C-104.31417676 187.65337741 -104.31417676 187.65337741 -103.18459892 187.71296406 C-94.02545653 188.15405104 -84.86305984 188.16424933 -75.6953125 188.16796875 C-73.79539975 188.1711932 -71.89548722 188.1745581 -69.99557495 188.17805481 C-66.04749984 188.18398749 -62.09944643 188.18590045 -58.15136719 188.18530273 C-53.11845814 188.18520059 -48.08568849 188.19893281 -43.05281258 188.21607494 C-39.14237843 188.22723543 -35.23197782 188.22922082 -31.32152939 188.22869301 C-29.46617013 188.22986393 -27.61080974 188.23423511 -25.75546646 188.24202538 C-9.15554746 188.30529639 6.02861267 187.83982236 18.875 175.8125 C27.29885042 166.76068982 30.00093837 157.86384452 30.55639648 145.87597656 C30.59857772 144.99275852 30.64075895 144.10954048 30.68421841 143.19955826 C31.08674256 134.12598628 31.12751119 125.06510054 31.09765625 115.984375 C31.09578313 114.26418093 31.09436347 112.54398631 31.09336853 110.8237915 C31.08961359 106.37213578 31.07984654 101.92051451 31.06866455 97.46887207 C31.05829621 92.89591945 31.05383844 88.32296107 31.04882812 83.75 C31.03821529 74.83331848 31.0212274 65.91666214 31 57 C28.03 57.495 28.03 57.495 25 58 C29.44 55.04 29.44 55.04 32 54 C32.99 54.33 33.98 54.66 35 55 C34.67 55.33 34.34 55.66 34 56 C33.91442818 57.56051771 33.89911108 59.12492824 33.91113281 60.68774414 C33.91570496 61.70895859 33.9202771 62.73017303 33.92498779 63.78233337 C33.93891571 65.4852932 33.93891571 65.4852932 33.953125 67.22265625 C33.9627312 69.70718986 33.97112818 72.19172834 33.97851562 74.67626953 C33.98089108 75.33982547 33.98326653 76.0033814 33.98571396 76.6870451 C34.02530319 88.84067435 33.9357591 100.99412927 33.8161087 113.14711571 C33.77625895 117.22773627 33.74417451 121.30812279 33.72900391 125.38891602 C33.71375661 129.427395 33.67926013 133.46530354 33.63169098 137.50352669 C33.6170609 139.01470041 33.60896979 140.52595472 33.60811615 142.03719902 C33.59111108 156.98240257 30.60761421 169.01289178 20.05078125 180.03515625 C9.98389592 189.35048629 -2.29856432 192.46915761 -15.78881836 192.40405273 C-16.80502762 192.41091599 -17.82123688 192.41777924 -18.86824036 192.42485046 C-22.19225456 192.44299406 -25.51579117 192.43929885 -28.83984375 192.43359375 C-31.17192231 192.43816133 -33.50399954 192.44346862 -35.83607483 192.44947815 C-40.71035246 192.45838474 -45.58446602 192.45601382 -50.45874023 192.44604492 C-56.68014283 192.43455563 -62.90097778 192.45477937 -69.12230587 192.48396206 C-73.93440804 192.50237773 -78.74637551 192.50202092 -83.5585041 192.49632454 C-85.85124063 192.496172 -88.14398668 192.50216024 -90.43668938 192.51461601 C-113.37084593 192.621681 -113.37084593 192.621681 -123 188 C-124.14855469 187.45601562 -125.29710938 186.91203125 -126.48046875 186.3515625 C-134.69531028 181.11208204 -139.87099391 174.79503421 -144 166 C-144.3454335 165.28488251 -144.690867 164.56976501 -145.04676819 163.83297729 C-149.4371535 152.97795429 -148.55855567 141.50487531 -148.49609375 129.9921875 C-148.49624896 127.656748 -148.49774162 125.32130824 -148.50050354 122.98587036 C-148.50188267 118.10911569 -148.4894089 113.23265686 -148.46655273 108.35595703 C-148.43813841 102.12435996 -148.44092078 95.89325268 -148.45364285 89.66161919 C-148.46061675 84.84530497 -148.45279165 80.02910279 -148.44038582 75.21280289 C-148.43589021 72.91563472 -148.43551787 70.61845445 -148.43945122 68.32128525 C-148.44238105 65.10570594 -148.42577259 61.89078836 -148.40405273 58.67529297 C-148.40855438 57.73891998 -148.41305603 56.802547 -148.41769409 55.83779907 C-148.27881976 43.38274163 -143.7873123 32.82197226 -135.25 23.75 C-123.58726373 12.7537058 -110.34679543 9.83203717 -94.80175781 9.87060547 C-93.91943985 9.86885315 -93.03712189 9.86710083 -92.12806702 9.86529541 C-89.23639918 9.86092432 -86.34479337 9.86379707 -83.453125 9.8671875 C-81.43389881 9.86651334 -79.41467269 9.86554238 -77.39544678 9.86428833 C-73.17589541 9.86281799 -68.95636529 9.86494545 -64.73681641 9.86962891 C-59.32746323 9.87534046 -53.91815952 9.87203398 -48.50880814 9.86605644 C-44.34472276 9.86244539 -40.18064914 9.86359168 -36.01656342 9.86618423 C-34.02145125 9.86685123 -32.02633803 9.86603299 -30.03122711 9.86370468 C-27.24767721 9.86116767 -24.46420795 9.86503297 -21.68066406 9.87060547 C-20.85669632 9.86858124 -20.03272858 9.86655701 -19.18379211 9.86447144 C-15.61863055 9.87770576 -12.43038747 10.03949791 -9 11 C-8.74476563 10.41734375 -8.48953125 9.8346875 -8.2265625 9.234375 C-6.88258913 6.78611777 -5.38189704 5.18256752 -3.375 3.25 C-2.74335938 2.63640625 -2.11171875 2.0228125 -1.4609375 1.390625 C-0.97882813 0.93171875 -0.49671875 0.4728125 0 0 Z " fill="#C1FDFE" transform="translate(197,24)"/>
<path d="M0 0 C1.59989556 0.23893023 3.20381429 0.45504778 4.8125 0.625 C5.1425 0.295 5.4725 -0.035 5.8125 -0.375 C9.37549065 -0.77088785 11.18889795 -0.80167508 14.1875 1.25 C15.8125 3.625 15.8125 3.625 16.5 6.375 C15.47543053 11.21841931 12.46594598 14.36830833 8.8125 17.625 C8.1525 17.625 7.4925 17.625 6.8125 17.625 C6.8125 18.285 6.8125 18.945 6.8125 19.625 C6.1525 19.625 5.4925 19.625 4.8125 19.625 C4.8125 20.285 4.8125 20.945 4.8125 21.625 C0.8125 21.625 0.8125 21.625 -1.625 19.5 C-2.470625 18.55125 -3.31625 17.6025 -4.1875 16.625 C-5.115625 15.696875 -6.04375 14.76875 -7 13.8125 C-9.9182336 9.56021675 -9.93401702 7.68472646 -9.1875 2.625 C-6.16441371 -0.4878126 -4.18552501 -0.6553407 0 0 Z " fill="#D7565B" transform="translate(212.1875,39.375)"/>
<path d="M0 0 C0.99 0.495 0.99 0.495 2 1 C-0.625 5.875 -0.625 5.875 -4 7 C-5.18391223 9.37625345 -5.18391223 9.37625345 -6 12 C-7.22934015 15.68802044 -8.93859378 16.72356973 -12 19 C-12 17.02 -12 15.04 -12 13 C-13.73574028 13.1065818 -13.73574028 13.1065818 -15.50654602 13.21531677 C-26.8438874 13.8805127 -38.12576068 14.13590694 -49.48046875 14.09765625 C-51.15725156 14.09578337 -52.83403492 14.0943636 -54.51081848 14.09336853 C-58.85234174 14.0896117 -63.19382972 14.07984285 -67.53533936 14.06866455 C-71.99425785 14.05830046 -76.45318223 14.05383932 -80.91210938 14.04882812 C-89.60808882 14.03821192 -98.30403998 14.02122151 -107 14 C-106 12 -106 12 -104 10 C-101.12895011 9.80649559 -98.35471534 9.73780935 -95.48291016 9.75708008 C-94.16074745 9.75423256 -94.16074745 9.75423256 -92.81187439 9.75132751 C-89.88751431 9.74761198 -86.96340066 9.75833665 -84.0390625 9.76953125 C-82.01126128 9.77072294 -79.98345951 9.77117624 -77.95565796 9.7709198 C-73.70022132 9.77248612 -69.44486864 9.78078578 -65.18945312 9.79418945 C-59.73283939 9.81115786 -54.27631819 9.81500446 -48.81968117 9.81424427 C-44.6298433 9.81451619 -40.44002568 9.82000129 -36.25019455 9.82724571 C-34.23833749 9.8304299 -32.22647813 9.83239921 -30.21461868 9.83313942 C-27.40166567 9.83530683 -24.58881083 9.84406049 -21.77587891 9.85473633 C-20.94248489 9.85428314 -20.10909088 9.85382996 -19.2504425 9.85336304 C-15.66557354 9.87326344 -12.449721 10.03352237 -9 11 C-8.74476563 10.41734375 -8.48953125 9.8346875 -8.2265625 9.234375 C-6.88258913 6.78611777 -5.38189704 5.18256752 -3.375 3.25 C-2.42753906 2.32960938 -2.42753906 2.32960938 -1.4609375 1.390625 C-0.97882813 0.93171875 -0.49671875 0.4728125 0 0 Z " fill="#E4FFFF" transform="translate(197,24)"/>
<path d="M0 0 C-0.62390625 0.309375 -1.2478125 0.61875 -1.890625 0.9375 C-3.19333682 1.59368077 -4.48354563 2.27631179 -5.75 3 C-8 4 -8 4 -11.625 4.8125 C-23.26365958 7.64644871 -31.02936038 14.52456226 -37.89453125 24.06640625 C-41.28474989 29.99629397 -42.55895916 35.20807649 -43.1875 41.9375 C-43.26935547 42.71673828 -43.35121094 43.49597656 -43.43554688 44.29882812 C-43.63364171 46.19820797 -43.81823841 48.09898762 -44 50 C-44.66 50 -45.32 50 -46 50 C-46 52.97 -46 55.94 -46 59 C-46.33 59 -46.66 59 -47 59 C-47.08847317 55.54183314 -47.14087725 52.08396421 -47.1875 48.625 C-47.21263672 47.65949219 -47.23777344 46.69398437 -47.26367188 45.69921875 C-47.39348334 32.80461305 -43.11328416 22.16835852 -34.25 12.75 C-24.2565757 3.32762851 -13.58455907 -0.68557588 0 0 Z " fill="#C5FEFE" transform="translate(96,35)"/>
<path d="M0 0 C-0.33 0.33 -0.66 0.66 -1 1 C-1.08403889 2.5561737 -1.09789317 4.11617709 -1.08447266 5.67456055 C-1.07666275 7.20352715 -1.07666275 7.20352715 -1.06869507 8.76338196 C-1.05402695 10.46412117 -1.05402695 10.46412117 -1.0390625 12.19921875 C-1.02858961 14.68277342 -1.01990061 17.16633605 -1.01269531 19.64990234 C-1.01057478 20.31422303 -1.00845425 20.97854372 -1.00626945 21.66299534 C-0.97355182 34.74116197 -1.15720774 47.81930312 -1.31738281 60.89624023 C-1.35746982 64.21131145 -1.39192244 67.5263747 -1.421875 70.84155273 C-1.45875826 74.91876101 -1.50502677 78.99576099 -1.55806351 83.07279015 C-1.57646688 84.60568372 -1.59162555 86.13862011 -1.60334396 87.67157936 C-1.62025586 89.79665441 -1.64926979 91.92124658 -1.68115234 94.04614258 C-1.69447601 95.24821854 -1.70779968 96.45029449 -1.7215271 97.688797 C-2.00667359 101.07935279 -2.78954638 103.83158158 -4 107 C-4.66 107 -5.32 107 -6 107 C-5.84647568 106.03576111 -5.69295135 105.07152222 -5.53477478 104.07806396 C-4.9045983 99.64645751 -4.65487977 95.21960879 -4.44360352 90.75097656 C-4.40142228 89.87678196 -4.35924105 89.00258736 -4.31578159 88.10190201 C-3.91066597 79.06096652 -3.87259569 70.0325925 -3.90234375 60.984375 C-3.90421687 59.26418093 -3.90563653 57.54398631 -3.90663147 55.8237915 C-3.91038641 51.37213578 -3.92015346 46.92051451 -3.93133545 42.46887207 C-3.94170379 37.89591945 -3.94616156 33.32296107 -3.95117188 28.75 C-3.96178471 19.83331848 -3.9787726 10.91666214 -4 2 C-5.98 2.33 -7.96 2.66 -10 3 C-3.66666667 -1.22222222 -3.66666667 -1.22222222 0 0 Z " fill="#DDFFFF" transform="translate(232,79)"/>
<path d="M0 0 C2.54342094 2.54342094 2.26126109 3.46911408 2.29052734 6.99707031 C2.30328705 8.03865295 2.31604675 9.0802356 2.32919312 10.15338135 C2.33141876 11.28354675 2.33364441 12.41371216 2.3359375 13.578125 C2.3459227 15.31712067 2.3459227 15.31712067 2.35610962 17.09124756 C2.36625201 19.54925954 2.37092615 22.00729915 2.37060547 24.46533203 C2.37496614 28.22084281 2.41123658 31.97516706 2.44921875 35.73046875 C2.45508907 38.11718348 2.45905702 40.50390379 2.4609375 42.890625 C2.47530853 44.01269348 2.48967957 45.13476196 2.50448608 46.29083252 C2.46845746 52.46334312 2.3110804 56.40366235 -2 61 C-5.60149879 63.43874249 -9.2343145 63.2703872 -13.43066406 63.22705078 C-14.17251953 63.22734283 -14.914375 63.22763489 -15.67871094 63.22793579 C-18.12446901 63.22654533 -20.56992032 63.21099765 -23.015625 63.1953125 C-24.71384515 63.19158136 -26.41206745 63.18873486 -28.11029053 63.18673706 C-32.57537807 63.17910857 -37.04033506 63.15946681 -41.50537109 63.1373291 C-46.0634586 63.11685379 -50.62156724 63.10773174 -55.1796875 63.09765625 C-64.11984896 63.07622018 -73.05991361 63.04209368 -82 63 C-82 62.67 -82 62.34 -82 62 C-74.41063211 61.03794886 -66.88764869 60.84070071 -59.24298668 60.80076981 C-57.15301565 60.78879784 -55.06323488 60.76931027 -52.9733429 60.74765015 C-47.03950302 60.68658604 -41.10569807 60.63185396 -35.17163086 60.59863281 C-31.52244066 60.57766894 -27.87362516 60.54237879 -24.22464943 60.49787521 C-22.84165664 60.48375821 -21.4585979 60.47500251 -20.07553673 60.47182083 C-18.14492121 60.46690183 -16.21438744 60.4421157 -14.28393555 60.41650391 C-13.18824753 60.40841705 -12.09255951 60.4003302 -10.96366882 60.39199829 C-7.63447524 59.9516528 -5.77393602 58.83164383 -3 57 C-2.34 57 -1.68 57 -1 57 C-0.06173511 53.82576416 0.12139248 50.98484218 0.11352539 47.68066406 C0.11344986 46.61986633 0.11337433 45.5590686 0.11329651 44.46612549 C0.10813522 43.32746033 0.10297394 42.18879517 0.09765625 41.015625 C0.0962413 39.84489441 0.09482635 38.67416382 0.09336853 37.46795654 C0.0877709 33.72861171 0.0752188 29.98932674 0.0625 26.25 C0.0574847 23.71484461 0.05292184 21.17968829 0.04882812 18.64453125 C0.03780224 12.42966707 0.02106644 6.21483781 0 0 Z " fill="#D8F8F8" transform="translate(184,102)"/>
<path d="M0 0 C0.33 0 0.66 0 1 0 C1 25.08 1 50.16 1 76 C0.67 76 0.34 76 0 76 C0 68.41 0 60.82 0 53 C-0.99 52.67 -1.98 52.34 -3 52 C-3.02492221 47.32267637 -3.04296415 42.64539233 -3.05493164 37.96801758 C-3.05992654 36.38044561 -3.06672475 34.79287817 -3.07543945 33.20532227 C-3.16225376 16.97104742 -3.16225376 16.97104742 -2 9 C-1.34 9 -0.68 9 0 9 C0 6.03 0 3.06 0 0 Z " fill="#F0FFFF" transform="translate(52,76)"/>
<path d="M0 0 C0.99 0.33 1.98 0.66 3 1 C-1.64178438 11.68949383 -8.32670348 20.76674433 -19 26 C-26.2817039 28.68361303 -33.21825269 30.62253978 -41 30 C-39.68 29.34 -38.36 28.68 -37 28 C-37 27.34 -37 26.68 -37 26 C-36.34515625 25.92523438 -35.6903125 25.85046875 -35.015625 25.7734375 C-22.67477606 23.99551858 -12.83698661 18.78823634 -5 9 C-3.12003013 6.08737063 -1.47530087 3.13594104 0 0 Z " fill="#B3FAFE" transform="translate(225,186)"/>
<path d="M0 0 C0.721875 0.144375 1.44375 0.28875 2.1875 0.4375 C2.785625 0.623125 3.38375 0.80875 4 1 C4.33 1.66 4.66 2.32 5 3 C7.01669827 4.13350534 7.01669827 4.13350534 9 5 C7.68 5.33 6.36 5.66 5 6 C5.185625 7.134375 5.37125 8.26875 5.5625 9.4375 C5.706875 10.613125 5.85125 11.78875 6 13 C5 14 5 14 2.625 14.25 C-0.51238732 13.95120121 -0.97533803 13.28874832 -3 11 C-4.32 10.34 -5.64 9.68 -7 9 C-7 6.03 -7 3.06 -7 0 C-3.77167035 -1.07610988 -3.0998653 -0.93935312 0 0 Z " fill="#DE4E52" transform="translate(212,42)"/>
<path d="M0 0 C0.98484375 0.00902344 1.9696875 0.01804688 2.984375 0.02734375 C4.10585937 0.04474609 4.10585937 0.04474609 5.25 0.0625 C4.62609375 0.371875 4.0021875 0.68125 3.359375 1 C2.05666318 1.65618077 0.76645437 2.33881179 -0.5 3.0625 C-2.75 4.0625 -2.75 4.0625 -6.375 4.875 C-15.79253117 7.16811633 -22.37271297 11.88359867 -28.75 19.0625 C-29.41 17.7425 -30.07 16.4225 -30.75 15.0625 C-21.9717947 6.32237802 -12.72765483 -0.1515197 0 0 Z " fill="#ABF7FC" transform="translate(90.75,34.9375)"/>
<path d="M0 0 C0.66 0.33 1.32 0.66 2 1 C-0.625 5.875 -0.625 5.875 -4 7 C-5.18391223 9.37625345 -5.18391223 9.37625345 -6 12 C-7.22934015 15.68802044 -8.93859378 16.72356973 -12 19 C-12 17.02 -12 15.04 -12 13 C-17.94 13 -23.88 13 -30 13 C-30 12.34 -30 11.68 -30 11 C-22.99740213 9.98144031 -15.9042648 9.04068161 -9 11 C-8.74476563 10.41734375 -8.48953125 9.8346875 -8.2265625 9.234375 C-6.88258913 6.78611777 -5.38189704 5.18256752 -3.375 3.25 C-2.74335938 2.63640625 -2.11171875 2.0228125 -1.4609375 1.390625 C-0.73777344 0.70226562 -0.73777344 0.70226562 0 0 Z " fill="#DDFBFD" transform="translate(197,24)"/>
<path d="M0 0 C0.99 0.33 1.98 0.66 3 1 C3.04945386 5.35992871 3.08574488 9.71970862 3.10986328 14.07983398 C3.11991821 15.56293583 3.13356404 17.04601788 3.15087891 18.52905273 C3.17515006 20.66134531 3.18648799 22.79337569 3.1953125 24.92578125 C3.20578613 26.20880127 3.21625977 27.49182129 3.22705078 28.8137207 C3 32 3 32 1 35 C0.15937224 30.63106263 -0.11732956 26.5164802 -0.09765625 22.0703125 C-0.09443359 20.78125 -0.09121094 19.4921875 -0.08789062 18.1640625 C-0.07953733 16.81770764 -0.07107241 15.47135348 -0.0625 14.125 C-0.0574783 12.75520996 -0.05291657 11.38541815 -0.04882812 10.015625 C-0.03707254 6.6770381 -0.02063964 3.33854185 0 0 Z " fill="#D1FEFF" transform="translate(49,128)"/>
<path d="M0 0 C2.54342094 2.54342094 2.26126109 3.46911408 2.29052734 6.99707031 C2.30328705 8.03865295 2.31604675 9.0802356 2.32919312 10.15338135 C2.33141876 11.28354675 2.33364441 12.41371216 2.3359375 13.578125 C2.3425943 14.73745544 2.3492511 15.89678589 2.35610962 17.09124756 C2.36625201 19.54925954 2.37092615 22.00729915 2.37060547 24.46533203 C2.37496614 28.22084281 2.41123658 31.97516706 2.44921875 35.73046875 C2.45508907 38.11718348 2.45905702 40.50390379 2.4609375 42.890625 C2.47530853 44.01269348 2.48967957 45.13476196 2.50448608 46.29083252 C2.46856214 52.44541016 2.29867884 56.40864929 -2 61 C-3.485 61.495 -3.485 61.495 -5 62 C-5 61.34 -5 60.68 -5 60 C-4.34 60 -3.68 60 -3 60 C-3 59.01 -3 58.02 -3 57 C-2.34 57 -1.68 57 -1 57 C-0.06173511 53.82576416 0.12139248 50.98484218 0.11352539 47.68066406 C0.11344986 46.61986633 0.11337433 45.5590686 0.11329651 44.46612549 C0.10813522 43.32746033 0.10297394 42.18879517 0.09765625 41.015625 C0.0962413 39.84489441 0.09482635 38.67416382 0.09336853 37.46795654 C0.0877709 33.72861171 0.0752188 29.98932674 0.0625 26.25 C0.0574847 23.71484461 0.05292184 21.17968829 0.04882812 18.64453125 C0.03780224 12.42966707 0.02106644 6.21483781 0 0 Z " fill="#D8F6F8" transform="translate(184,102)"/>
<path d="M0 0 C0.99 0.66 1.98 1.32 3 2 C1.71034824 3.37562854 0.37310707 4.70766393 -1 6 C-1.66 6 -2.32 6 -3 6 C-3 6.66 -3 7.32 -3 8 C-3.66 8 -4.32 8 -5 8 C-5 8.66 -5 9.32 -5 10 C-9 10 -9 10 -11.625 7.75 C-13.57665881 5.49018453 -14.8867446 3.73253598 -16 1 C-13.13275314 1.57344937 -12.1385485 1.8614515 -10 4 C-5.16236081 3.76394255 -5.16236081 3.76394255 -1.0625 1.4375 C-0.711875 0.963125 -0.36125 0.48875 0 0 Z " fill="#D2686E" transform="translate(222,51)"/>
<path d="M0 0 C4.45831982 -0.02891546 8.91661569 -0.04676981 13.375 -0.0625 C14.64601562 -0.07087891 15.91703125 -0.07925781 17.2265625 -0.08789062 C19.04414063 -0.09272461 19.04414063 -0.09272461 20.8984375 -0.09765625 C22.57945557 -0.10551147 22.57945557 -0.10551147 24.29443359 -0.11352539 C27 0 27 0 29 1 C28.67 1.99 28.34 2.98 28 4 C21.4 4 14.8 4 8 4 C8 3.67 8 3.34 8 3 C12.455 2.505 12.455 2.505 17 2 C11.39 1.67 5.78 1.34 0 1 C0 0.67 0 0.34 0 0 Z " fill="#F6FFFF" transform="translate(138,34)"/>
<path d="M0 0 C0.78761719 0.34933594 1.57523437 0.69867188 2.38671875 1.05859375 C10.3595202 4.38924335 17.36975089 5.84462727 26 6 C26 6.33 26 6.66 26 7 C22.37 7 18.74 7 15 7 C15 7.66 15 8.32 15 9 C8.87903309 7.94513949 4.24493326 6.34782974 -1 3 C-0.67 2.01 -0.34 1.02 0 0 Z " fill="#B2FCFD" transform="translate(71,206)"/>
<path d="M0 0 C0.90298828 -0.00257812 1.80597656 -0.00515625 2.73632812 -0.0078125 C4.14108398 0.00378906 4.14108398 0.00378906 5.57421875 0.015625 C6.49912109 0.00789063 7.42402344 0.00015625 8.37695312 -0.0078125 C13.72985654 0.00740542 18.20038926 0.50637668 23.26171875 2.265625 C23.26171875 3.255625 23.26171875 4.245625 23.26171875 5.265625 C22.4732959 4.78343506 22.4732959 4.78343506 21.66894531 4.29150391 C18.60222938 2.98457284 16.07643531 2.94239 12.74609375 2.8515625 C11.49570313 2.81289062 10.2453125 2.77421875 8.95703125 2.734375 C7.65507812 2.7034375 6.353125 2.6725 5.01171875 2.640625 C3.69429687 2.60195312 2.376875 2.56328125 1.01953125 2.5234375 C-2.23293286 2.42916318 -5.48539121 2.3435575 -8.73828125 2.265625 C-5.70000556 0.51205365 -3.49543075 0.00968359 0 0 Z " fill="#E0F8FA" transform="translate(133.73828125,83.734375)"/>
<path d="M0 0 C0 0.66 0 1.32 0 2 C-6.93 2 -13.86 2 -21 2 C-21 1.34 -21 0.68 -21 0 C-13.99740213 -1.01855969 -6.9042648 -1.95931839 0 0 Z " fill="#C9FFFF" transform="translate(188,35)"/>
<path d="M0 0 C1.46373047 0.02707031 1.46373047 0.02707031 2.95703125 0.0546875 C3.69308594 0.07789063 4.42914063 0.10109375 5.1875 0.125 C3.85416667 0.79166667 2.52083333 1.45833333 1.1875 2.125 C0.22070312 2.64707031 0.22070312 2.64707031 -0.765625 3.1796875 C-3.01975336 4.22071625 -5.13336271 4.7498835 -7.5625 5.25 C-8.36171875 5.41757812 -9.1609375 5.58515625 -9.984375 5.7578125 C-10.58765625 5.87898438 -11.1909375 6.00015625 -11.8125 6.125 C-11.625 4.25 -11.625 4.25 -10.8125 2.125 C-7.20779222 0.08894836 -4.08193748 -0.09835994 0 0 Z " fill="#C3FCFF" transform="translate(90.8125,34.875)"/>
<path d="M0 0 C0.99 0.66 1.98 1.32 3 2 C-0.96 2 -4.92 2 -9 2 C-8.67 5.3 -8.34 8.6 -8 12 C-8.66 12 -9.32 12 -10 12 C-11.5986549 8.80269021 -11.49575116 5.47025813 -11 2 C-7.9322319 -2.04945389 -4.57719296 -1.08188197 0 0 Z " fill="#CB656C" transform="translate(214,40)"/>
<path d="M0 0 C0.8125 1.6875 0.8125 1.6875 1 4 C-1.1875 6.5 -1.1875 6.5 -4 9 C-4.66 9.763125 -5.32 10.52625 -6 11.3125 C-8 13 -8 13 -10.75 13.25 C-11.4925 13.1675 -12.235 13.085 -13 13 C-12.01 12.67 -11.02 12.34 -10 12 C-10 11.34 -10 10.68 -10 10 C-9.34 10 -8.68 10 -8 10 C-8 9.34 -8 8.68 -8 8 C-6.50390625 6.5625 -6.50390625 6.5625 -4.5625 5 C-1.84811762 2.85474956 -1.84811762 2.85474956 0 0 Z " fill="#FBDDDD" transform="translate(227,49)"/>
<path d="M0 0 C0.33 0 0.66 0 1 0 C1.05434116 2.5419589 1.0938339 5.08273682 1.125 7.625 C1.14175781 8.33785156 1.15851563 9.05070313 1.17578125 9.78515625 C1.21684602 14.2612164 0.69086567 17.77949278 -1 22 C-1.66 22 -2.32 22 -3 22 C-2.01 14.74 -1.02 7.48 0 0 Z " fill="#CCFFFF" transform="translate(229,164)"/>
<path d="M0 0 C2.875 2.625 2.875 2.625 5 5 C4.67 5.66 4.34 6.32 4 7 C2.7625 5.7934375 2.7625 5.7934375 1.5 4.5625 C-3.19514499 0.62391866 -8.030097 1 -14 1 C-14 0.34 -14 -0.32 -14 -1 C-8.68168465 -1.91695092 -5.00374539 -2.44627552 0 0 Z " fill="#DEFDFD" transform="translate(148,114)"/>
<path d="M0 0 C-0.33 0.33 -0.66 0.66 -1 1 C-1.28397852 3.80823199 -1.44846665 6.61646635 -1.62109375 9.43359375 C-2 12 -2 12 -4 14 C-4 10.04 -4 6.08 -4 2 C-5.98 2.33 -7.96 2.66 -10 3 C-3.66666667 -1.22222222 -3.66666667 -1.22222222 0 0 Z " fill="#C7F8FA" transform="translate(232,79)"/>
<path d="M0 0 C2.40034102 3.60051153 4.32187705 6.96144535 3.625 11.375 C3.41875 11.91125 3.2125 12.4475 3 13 C0.2289312 10.65408148 -0.52059284 8.85223799 -1.1875 5.3125 C-1.34605469 4.50425781 -1.50460938 3.69601563 -1.66796875 2.86328125 C-1.77753906 2.24839844 -1.88710938 1.63351563 -2 1 C-1.34 0.67 -0.68 0.34 0 0 Z " fill="#C8FFFF" transform="translate(51,175)"/>
<path d="M0 0 C7.56198897 -0.44701413 12.76335625 -0.53574091 19 4 C18.01 4.495 18.01 4.495 17 5 C16.15695313 4.55527344 16.15695313 4.55527344 15.296875 4.1015625 C12.2611308 2.64564436 9.59944522 2.57596671 6.25 2.375 C4.49429688 2.26285156 4.49429688 2.26285156 2.703125 2.1484375 C1.81109375 2.09945312 0.9190625 2.05046875 0 2 C0 1.34 0 0.68 0 0 Z " fill="#D8FDFE" transform="translate(164,95)"/>
<path d="M0 0 C0.33 0.99 0.66 1.98 1 3 C-1.07421875 5.046875 -1.07421875 5.046875 -4 7 C-7.33203125 6.953125 -7.33203125 6.953125 -10.8125 6.25 C-12.55466797 5.91742188 -12.55466797 5.91742188 -14.33203125 5.578125 C-15.21246094 5.38734375 -16.09289062 5.1965625 -17 5 C-17 4.34 -17 3.68 -17 3 C-16.19175781 3.03480469 -15.38351563 3.06960937 -14.55078125 3.10546875 C-12.94783203 3.14607422 -12.94783203 3.14607422 -11.3125 3.1875 C-9.72888672 3.23970703 -9.72888672 3.23970703 -8.11328125 3.29296875 C-4.64577232 2.96666615 -2.81567552 1.99030125 0 0 Z " fill="#DEFBFD" transform="translate(150,142)"/>
<path d="M0 0 C4.32667075 0.60289674 8.44675038 0.70437727 12.8125 0.625 C13.1425 1.285 13.4725 1.945 13.8125 2.625 C11.95625 2.5940625 11.95625 2.5940625 10.0625 2.5625 C7.77739236 2.55449612 5.95927424 2.58497066 3.75 3.1875 C0.08276292 4.01558579 -3.85042162 3.29353919 -7.1875 1.625 C-3.90994439 -0.56003707 -3.61770574 -0.57627171 0 0 Z " fill="#F8C9CB" transform="translate(212.1875,37.375)"/>
<path d="M0 0 C3.11963955 1.36018991 5.00834822 2.83260134 7.1875 5.4375 C7.69667969 6.03433594 8.20585937 6.63117187 8.73046875 7.24609375 C10 9 10 9 11 12 C10.01 11.67 9.02 11.34 8 11 C7.5 9 7.5 9 7 7 C6.01 6.67 5.02 6.34 4 6 C4 5.34 4 4.68 4 4 C2.68 3.34 1.36 2.68 0 2 C0 1.34 0 0.68 0 0 Z " fill="#DCFAFC" transform="translate(233,25)"/>
<path d="M0 0 C0.85276722 2.41707906 1.12087895 3.64003451 0.29296875 6.10546875 C-0.25423828 7.13607422 -0.25423828 7.13607422 -0.8125 8.1875 C-1.34810547 9.22970703 -1.34810547 9.22970703 -1.89453125 10.29296875 C-3 12 -3 12 -5 13 C-4.125 7.25 -4.125 7.25 -3 5 C-2.34 5 -1.68 5 -1 5 C-0.67 3.35 -0.34 1.7 0 0 Z " fill="#E4FEFD" transform="translate(245,58)"/>
<path d="M0 0 C2.50037734 2.17424117 3.43628586 3.73045798 4 7 C3.01 7.33 2.02 7.66 1 8 C0.01 6.35 -0.98 4.7 -2 3 C-1.34 2.01 -0.68 1.02 0 0 Z " fill="#CDFEFF" transform="translate(61,196)"/>
<path d="M0 0 C0.66 0.33 1.32 0.66 2 1 C1 4 1 4 -1.0625 5.1875 C-1.701875 5.455625 -2.34125 5.72375 -3 6 C-3.99 5.01 -4.98 4.02 -6 3 C-4.03533587 1.93224776 -2.03144641 0.93446535 0 0 Z " fill="#B4F6FE" transform="translate(78,37)"/>
<path d="M0 0 C2.64 0.33 5.28 0.66 8 1 C8 1.66 8 2.32 8 3 C4.37 3 0.74 3 -3 3 C-2.01 2.67 -1.02 2.34 0 2 C0 1.34 0 0.68 0 0 Z " fill="#BAFCFC" transform="translate(180,34)"/>
</svg>
